<svg width="407" height="592" viewBox="0 0 407 592" fill="none" xmlns="http://www.w3.org/2000/svg">
<path d="M279.481 202.062C279.481 202.062 258.205 182.26 250.08 187.861C250.08 187.861 239.442 211.904 234.546 213.763C232.521 219.658 229.599 225.272 225.536 225.08C225.089 227.06 225.133 229.119 225.665 231.078C226.536 234.666 218.231 250.379 212.694 248.842C207.158 247.303 199.25 233.269 201.557 225.362C201.702 224.826 201.817 224.283 201.903 223.734C201.608 223.157 191.855 204.689 190.868 195.051C189.855 185.259 185.626 189.501 185.626 189.501C185.626 189.501 191.24 194.448 182.486 198.345C173.72 202.254 151.97 205.304 160.634 197.204C160.634 197.204 159.365 193.41 155.123 196.871C155.123 196.871 152.06 200.908 159.442 214.634C159.442 214.634 170.874 273.449 168.837 288.175C168.837 288.175 165.62 325.612 169.247 329.175C170.977 330.879 193.252 337.224 215.283 336.583C229.288 336.249 243.184 334.02 256.591 329.956L255.271 278.396C254.986 267.419 257.003 256.505 261.192 246.355L279.481 202.062ZM208.234 313.231C203.756 312.308 199.574 310.297 196.059 307.374C192.568 304.422 189.835 300.678 188.087 296.454C186.331 292.34 185.491 287.892 185.626 283.42C186.475 287.662 187.911 291.764 189.894 295.608C191.821 299.361 194.474 302.694 197.699 305.413C199.284 306.781 201.032 307.947 202.903 308.886C203.813 309.425 204.799 309.796 205.748 310.245C206.748 310.578 207.722 311.027 208.747 311.296C212.908 312.504 217.188 313.256 221.512 313.539C217.106 314.275 212.601 314.171 208.234 313.231Z" fill="#D24848"/>
<path d="M237.802 201.318L237.738 201.344C238.174 193.295 234.085 175.929 234.085 175.929C234.085 175.929 212.284 176.992 209.324 176.223C209.324 176.223 202.826 176.095 203.454 195.704C203.454 195.704 196.636 189.181 198.186 197.371C198.468 198.857 198.763 200.152 199.071 201.267C186.062 192.936 201.749 158.537 201.813 161.536C201.917 162.467 202.344 163.333 203.018 163.984C205.71 167.008 209.901 163.702 213.656 162.394C214.412 162.125 215.143 161.895 215.86 161.69C218.678 160.896 221.639 160.754 224.52 161.276C227.4 161.798 230.124 162.969 232.484 164.701C234.844 166.434 236.778 168.681 238.139 171.273C239.5 173.864 240.253 176.732 240.34 179.658C240.607 186.965 239.751 194.271 237.802 201.318ZM212.079 221.026C210.049 219.916 208.255 218.423 206.796 216.629C206.061 215.725 205.437 214.737 204.938 213.685C204.449 212.627 204.173 211.484 204.127 210.32C204.48 211.388 204.943 212.416 205.51 213.387C206.09 214.337 206.734 215.246 207.437 216.108C208.889 217.835 210.438 219.477 212.079 221.026ZM218.424 223.555C218.989 223.755 219.581 223.868 220.18 223.89C220.769 223.948 221.357 224.029 221.952 224.104C222.543 224.205 223.14 224.3 223.737 224.453C224.359 224.594 224.962 224.804 225.537 225.08C224.32 225.477 223.025 225.577 221.761 225.371C221.125 225.278 220.504 225.103 219.913 224.85C219.59 224.746 219.291 224.578 219.035 224.355C218.779 224.133 218.571 223.86 218.424 223.555Z" fill="black"/>
<path d="M237.82 201.349C237.811 201.941 237.765 202.533 237.683 203.12C237.584 203.719 237.442 204.275 237.319 204.854L236.529 208.294C235.992 210.593 235.336 212.864 234.564 215.096C233.817 217.369 232.817 219.551 231.583 221.601C230.939 222.665 230.124 223.614 229.169 224.41C228.147 225.278 226.846 225.749 225.505 225.738L226.167 225.271C225.869 226.714 225.844 228.2 226.094 229.652C226.156 230.022 226.226 230.39 226.313 230.754C226.366 230.982 226.403 231.214 226.426 231.448C226.437 231.677 226.434 231.906 226.415 232.135C226.33 232.969 226.157 233.792 225.899 234.59C224.877 237.637 223.423 240.521 221.582 243.155C220.685 244.496 219.654 245.743 218.505 246.876C217.351 248.121 215.862 249.009 214.217 249.432C213.765 249.519 213.3 249.516 212.849 249.421C212.424 249.315 212.012 249.163 211.62 248.968C210.885 248.586 210.203 248.11 209.592 247.551C208.397 246.478 207.341 245.26 206.447 243.926C204.636 241.318 203.201 238.469 202.184 235.462C201.673 233.96 201.304 232.414 201.08 230.843C200.815 229.263 200.831 227.649 201.127 226.074C201.775 223.011 202.258 219.915 202.574 216.799C202.941 213.686 203.281 210.57 203.594 207.45L204.192 208.018C203.642 208.123 203.075 208.091 202.541 207.923C202.015 207.741 201.538 207.441 201.147 207.045C200.451 206.304 199.899 205.44 199.519 204.497C198.79 202.718 198.232 200.874 197.853 198.99C197.594 198.054 197.402 197.101 197.276 196.139C197.213 195.616 197.207 195.088 197.261 194.564C197.28 194.224 197.371 193.891 197.529 193.589C197.686 193.287 197.905 193.022 198.173 192.811C198.474 192.631 198.811 192.522 199.161 192.492C199.51 192.462 199.861 192.512 200.188 192.637C200.694 192.808 201.177 193.037 201.63 193.319C202.477 193.846 203.271 194.453 204.001 195.132L202.662 195.73C202.633 193.91 202.569 192.092 202.659 190.263C202.71 188.426 202.881 186.594 203.17 184.779C203.44 182.914 203.971 181.096 204.747 179.38C204.959 178.946 205.21 178.522 205.456 178.1C205.735 177.68 206.05 177.284 206.397 176.917C206.754 176.525 207.168 176.19 207.624 175.921C207.862 175.774 208.116 175.653 208.38 175.559C208.687 175.444 209.012 175.38 209.34 175.369L209.383 175.371L209.539 175.396L210.179 175.499L210.919 175.555C211.407 175.602 211.928 175.6 212.431 175.625C213.45 175.652 214.474 175.663 215.503 175.66L221.68 175.586C225.802 175.526 229.931 175.414 234.053 175.272L234.072 175.271C234.223 175.266 234.371 175.314 234.49 175.406C234.61 175.499 234.693 175.631 234.725 175.778C235.65 179.989 236.377 184.223 236.998 188.481C237.314 190.608 237.552 192.746 237.715 194.895C237.911 197.04 237.946 199.197 237.82 201.348C237.819 201.359 237.816 201.369 237.811 201.379C237.807 201.389 237.8 201.397 237.792 201.405C237.783 201.412 237.774 201.417 237.763 201.42C237.753 201.424 237.742 201.425 237.731 201.424C237.71 201.422 237.691 201.412 237.676 201.397C237.662 201.381 237.655 201.36 237.655 201.339C237.657 199.201 237.5 197.065 237.184 194.95C236.899 192.832 236.537 190.723 236.155 188.619C235.392 184.411 234.43 180.231 233.445 176.08L234.117 176.586C229.986 176.829 225.855 177.034 221.723 177.202C219.655 177.292 217.585 177.318 215.509 177.337C214.471 177.347 213.43 177.34 212.385 177.318C211.857 177.295 211.344 177.3 210.802 177.252L209.998 177.195L209.109 177.051L209.307 177.078C209.018 177.132 208.742 177.241 208.495 177.4C208.176 177.591 207.888 177.83 207.642 178.109C207.372 178.399 207.127 178.711 206.908 179.041C206.707 179.399 206.497 179.753 206.315 180.128C205.628 181.709 205.144 183.371 204.876 185.074C204.575 186.814 204.387 188.573 204.315 190.338C204.202 192.11 204.242 193.895 204.246 195.679V195.695C204.246 195.851 204.201 196.003 204.116 196.133C204.031 196.263 203.909 196.365 203.767 196.427C203.624 196.489 203.467 196.507 203.314 196.481C203.161 196.454 203.019 196.383 202.906 196.277C202.264 195.666 201.566 195.117 200.821 194.637C200.478 194.415 200.111 194.232 199.727 194.093C199.375 193.979 199.082 193.986 199.022 194.057C198.924 194.085 198.784 194.389 198.737 194.762C198.686 195.174 198.68 195.59 198.719 196.004C198.812 196.911 198.969 197.81 199.187 198.696C199.496 200.514 199.977 202.299 200.623 204.027C201.266 205.675 202.366 207.33 204.022 206.999C204.101 206.983 204.182 206.986 204.259 207.008C204.336 207.03 204.407 207.07 204.465 207.124C204.524 207.179 204.569 207.246 204.596 207.322C204.623 207.397 204.632 207.478 204.622 207.557L204.621 207.567C204.213 210.683 203.778 213.794 203.315 216.899C202.825 219.999 202.401 223.123 201.673 226.187C201.196 229.257 201.555 232.399 202.712 235.282C203.731 238.222 205.201 240.985 207.069 243.474C207.972 244.716 209.025 245.841 210.205 246.823C210.77 247.302 211.395 247.707 212.064 248.025C212.379 248.167 212.708 248.277 213.046 248.352C213.366 248.408 213.695 248.397 214.012 248.32C215.401 247.88 216.638 247.059 217.583 245.95C218.629 244.839 219.58 243.641 220.424 242.369C222.134 239.818 223.507 237.057 224.509 234.154C224.745 233.462 224.908 232.748 224.996 232.022C225.013 231.86 225.019 231.697 225.014 231.534C225.001 231.377 224.977 231.221 224.943 231.067C224.853 230.667 224.783 230.263 224.722 229.858C224.461 228.205 224.523 226.518 224.905 224.889C224.94 224.75 225.022 224.627 225.138 224.541C225.253 224.456 225.394 224.413 225.537 224.42L225.568 224.421C226.598 224.435 227.598 224.077 228.386 223.414C229.241 222.707 229.986 221.876 230.596 220.949C231.855 219.013 232.894 216.942 233.693 214.775C234.533 212.6 235.255 210.376 235.941 208.134L236.921 204.754C237.072 204.191 237.255 203.617 237.392 203.065C237.515 202.495 237.603 201.919 237.655 201.339C237.657 201.317 237.667 201.298 237.684 201.284C237.7 201.27 237.721 201.263 237.742 201.264C237.764 201.265 237.784 201.275 237.798 201.291C237.813 201.306 237.821 201.327 237.82 201.349L237.82 201.349Z" fill="black"/>
<path d="M237.083 189.678C236.321 189.296 235.613 188.926 234.907 188.604C234.242 188.281 233.537 188.049 232.81 187.914C232.137 187.793 231.444 187.862 230.809 188.115C230.104 188.446 229.453 188.881 228.877 189.406C229.084 188.538 229.594 187.772 230.315 187.245C231.103 186.7 232.074 186.486 233.018 186.65C233.899 186.814 234.725 187.193 235.425 187.752C236.112 188.265 236.678 188.922 237.083 189.678ZM217.657 188.135C216.039 187.308 214.228 186.936 212.416 187.058C211.551 187.154 210.712 187.406 209.937 187.803C209.516 187.965 209.155 188.253 208.734 188.465C208.337 188.713 207.963 189.003 207.519 189.248C207.751 188.81 208.018 188.39 208.316 187.994C208.641 187.607 209.008 187.258 209.411 186.953C210.24 186.307 211.231 185.903 212.275 185.785C213.318 185.671 214.373 185.84 215.329 186.275C216.255 186.678 217.059 187.32 217.657 188.135ZM229.142 201.413C229.041 202.056 228.764 202.659 228.342 203.155C227.921 203.652 227.371 204.022 226.753 204.227C226.135 204.447 225.473 204.51 224.825 204.412C224.195 204.328 223.598 204.077 223.098 203.684C223.732 203.557 224.29 203.516 224.822 203.412C225.332 203.328 225.832 203.197 226.318 203.022C226.804 202.854 227.271 202.636 227.712 202.372C228.205 202.077 228.682 201.757 229.142 201.413ZM231.547 196.502C232.045 196.484 232.517 196.274 232.864 195.916C233.21 195.557 233.404 195.078 233.404 194.579C233.404 194.081 233.21 193.602 232.864 193.243C232.517 192.884 232.045 192.674 231.547 192.657C231.049 192.674 230.577 192.884 230.23 193.243C229.884 193.602 229.69 194.081 229.69 194.579C229.69 195.078 229.884 195.557 230.23 195.916C230.577 196.274 231.049 196.484 231.547 196.502ZM214.635 196.297C215.134 196.28 215.606 196.07 215.952 195.711C216.298 195.353 216.492 194.873 216.492 194.375C216.492 193.876 216.298 193.397 215.952 193.039C215.606 192.68 215.134 192.47 214.635 192.452C214.137 192.47 213.665 192.68 213.319 193.039C212.972 193.397 212.779 193.876 212.779 194.375C212.779 194.873 212.972 195.353 213.319 195.711C213.665 196.07 214.137 196.28 214.635 196.297ZM220.772 208.21C220.523 208.94 220.561 209.737 220.876 210.441C221.16 211.091 221.6 211.662 222.156 212.103C222.7 212.554 223.348 212.862 224.041 212.998C224.414 213.072 224.798 213.071 225.17 212.996C225.543 212.921 225.897 212.773 226.212 212.56C226.022 212.989 225.712 213.353 225.319 213.608C224.926 213.863 224.467 213.999 223.999 213.997C223.035 214.03 222.093 213.71 221.349 213.097C220.601 212.496 220.092 211.647 219.915 210.704C219.81 210.25 219.835 209.775 219.986 209.335C220.138 208.894 220.41 208.504 220.772 208.21ZM185.553 189.537L178.179 175.02L170.722 160.556C168.216 155.748 165.664 150.963 162.987 146.259C161.663 143.899 160.321 141.55 158.895 139.264C158.181 138.123 157.446 136.995 156.669 135.913C155.969 134.851 155.122 133.894 154.153 133.069L154.131 133.054C154.061 133.003 154.002 132.94 153.956 132.867C153.911 132.794 153.881 132.712 153.867 132.627C153.853 132.543 153.856 132.456 153.875 132.372C153.895 132.288 153.931 132.209 153.981 132.139C154.036 132.063 154.107 132 154.188 131.953C154.532 131.703 154.802 131.365 154.968 130.974C155.158 130.519 155.264 130.033 155.284 129.541C155.298 128.476 155.13 127.418 154.786 126.411C154.431 125.366 153.994 124.35 153.477 123.375C152.977 122.381 152.376 121.436 151.791 120.481L151.776 120.457C151.75 120.415 151.733 120.368 151.724 120.319L150.733 114.455L150.491 112.986L150.374 112.248L150.32 111.878C150.302 111.781 150.274 111.686 150.239 111.593C150.086 111.178 149.839 110.804 149.518 110.501C149.197 110.197 148.809 109.972 148.387 109.843C147.576 109.704 146.839 110.539 146.786 111.415C146.763 112.345 146.789 113.378 146.796 114.354C146.811 115.342 146.818 116.333 146.875 117.316C146.931 117.598 146.915 117.889 146.829 118.163C146.743 118.438 146.588 118.686 146.38 118.884C145.932 119.23 145.373 119.399 144.808 119.358C143.765 119.281 142.761 118.927 141.9 118.334C141.468 118.063 141.067 117.716 140.692 117.446C140.301 117.168 139.885 116.912 139.462 116.668C137.738 115.715 135.959 114.866 134.133 114.127L131.385 113.02C130.504 112.638 129.594 112.326 128.664 112.087C128.269 111.979 127.852 111.987 127.462 112.11C127.072 112.233 126.725 112.465 126.464 112.779C126.176 113.597 126.211 114.495 126.562 115.289C126.591 115.378 126.593 115.473 126.569 115.563C126.544 115.654 126.495 115.735 126.426 115.798C126.357 115.861 126.271 115.903 126.179 115.919C126.087 115.935 125.992 115.924 125.906 115.887L125.899 115.884L123.519 114.874C122.813 114.499 122.039 114.269 121.243 114.198C120.535 114.141 119.831 114.354 119.273 114.794C118.872 115.165 118.939 115.851 119.245 116.564C119.29 116.669 119.305 116.785 119.287 116.897C119.269 117.01 119.22 117.116 119.145 117.202C119.071 117.289 118.973 117.352 118.864 117.385C118.754 117.419 118.638 117.421 118.528 117.391L118.506 117.385C117.61 117.142 116.701 116.951 115.784 116.814C114.936 116.652 114.066 116.644 113.216 116.792C112.877 116.897 112.568 117.081 112.314 117.329C112.06 117.577 111.869 117.882 111.757 118.219C111.601 118.799 112 119.441 112.623 119.994C112.759 120.115 112.847 120.283 112.868 120.464C112.89 120.645 112.844 120.828 112.739 120.977L112.729 120.993C112.508 121.266 112.346 121.583 112.253 121.922C112.161 122.261 112.139 122.616 112.19 122.964C112.317 123.403 113.073 123.736 113.917 123.833C114.413 123.874 114.907 123.944 115.395 124.043C115.891 124.161 116.379 124.311 116.855 124.491C117.777 124.842 118.674 125.255 119.541 125.727C121.236 126.657 122.875 127.686 124.448 128.809C126.023 129.92 127.541 131.073 129.037 132.309L128.945 132.241C131.575 133.914 134.201 135.604 136.854 137.233C138.178 138.042 139.516 138.863 140.846 139.582L141.332 139.828L142.06 140.15C142.202 140.277 142.321 140.427 142.413 140.594L142.58 140.885L142.863 141.435C143.219 142.158 143.541 142.875 143.86 143.596C146.388 149.35 148.591 155.202 150.749 161.078C152.905 166.953 154.938 172.875 156.751 178.868C157.657 181.864 158.532 184.872 159.252 187.923C160.065 190.956 160.556 194.066 160.717 197.201C160.717 197.212 160.715 197.223 160.711 197.233C160.707 197.243 160.701 197.252 160.694 197.26C160.686 197.268 160.677 197.274 160.667 197.278C160.657 197.283 160.646 197.285 160.636 197.285C160.614 197.284 160.593 197.275 160.578 197.26C160.562 197.245 160.553 197.225 160.552 197.203C160.247 194.103 159.617 191.044 158.672 188.075C157.798 185.083 156.857 182.111 155.851 179.157C153.83 173.255 151.656 167.404 149.415 161.58C147.149 155.77 144.809 149.973 142.322 144.279C142.006 143.573 141.684 142.866 141.347 142.189L141.092 141.698L140.968 141.481C140.955 141.44 140.827 141.306 140.974 141.455C141.046 141.498 140.966 141.482 141.236 141.594C141.312 141.617 141.391 141.628 141.47 141.626L141.413 141.622C141.335 141.615 141.259 141.604 141.183 141.587C141.102 141.566 141.022 141.541 140.944 141.51C140.801 141.459 140.725 141.417 140.612 141.369L140.052 141.088C138.629 140.326 137.301 139.516 135.955 138.702C133.281 137.064 130.629 135.409 128.001 133.704L127.918 133.643L127.909 133.636C125.067 131.199 122.008 129.027 118.77 127.148C117.973 126.702 117.146 126.31 116.296 125.975C115.886 125.814 115.466 125.68 115.039 125.572C114.597 125.479 114.15 125.412 113.7 125.372C113.146 125.304 112.607 125.147 112.103 124.908C111.486 124.628 111.003 124.116 110.759 123.484C110.562 122.872 110.569 122.214 110.779 121.606C110.948 121.072 111.2 120.567 111.526 120.111L111.631 121.109C111.203 120.727 110.847 120.271 110.581 119.762C110.29 119.177 110.216 118.509 110.371 117.874C110.54 117.282 110.873 116.749 111.333 116.339C111.761 115.93 112.286 115.634 112.857 115.48C113.893 115.298 114.955 115.317 115.983 115.537C116.952 115.705 117.91 115.93 118.853 116.21L118.113 117.031C117.916 116.559 117.808 116.055 117.798 115.543C117.796 115.25 117.853 114.959 117.966 114.688C118.079 114.417 118.246 114.172 118.456 113.967C118.849 113.641 119.303 113.396 119.792 113.247C120.281 113.098 120.794 113.047 121.303 113.097C122.227 113.195 123.122 113.475 123.937 113.921L126.292 114.987L125.628 115.583C125.419 115.062 125.316 114.505 125.325 113.943C125.335 113.382 125.456 112.829 125.682 112.315C125.846 112.056 126.061 111.832 126.313 111.657C126.565 111.483 126.85 111.361 127.151 111.298C127.693 111.174 128.254 111.162 128.801 111.265C129.785 111.534 130.744 111.886 131.669 112.317L134.405 113.5C136.215 114.323 138.02 115.159 139.757 116.161C140.189 116.415 140.616 116.682 141.029 116.982C141.453 117.296 141.799 117.605 142.205 117.866C142.978 118.411 143.882 118.742 144.824 118.826C145.257 118.866 145.69 118.747 146.042 118.492C146.193 118.346 146.303 118.163 146.361 117.961C146.419 117.759 146.422 117.545 146.371 117.342L146.274 114.363C146.257 113.359 146.215 112.41 146.23 111.361C146.273 110.799 146.501 110.268 146.88 109.85C147.077 109.632 147.324 109.463 147.6 109.359C147.876 109.255 148.173 109.219 148.466 109.252C149.022 109.349 149.532 109.624 149.918 110.037C150.303 110.414 150.611 110.862 150.826 111.357C150.882 111.495 150.924 111.638 150.951 111.784L151.009 112.149L151.134 112.877L151.406 114.334L152.579 120.157L152.513 119.996C153.142 120.952 153.786 121.899 154.337 122.913C154.912 123.922 155.404 124.976 155.809 126.064C156.23 127.192 156.452 128.384 156.465 129.588C156.494 130.264 156.356 130.937 156.063 131.548C155.77 132.158 155.332 132.688 154.787 133.089L154.822 131.973C155.977 132.843 156.977 133.901 157.78 135.103C158.596 136.216 159.355 137.357 160.091 138.509C161.556 140.817 162.943 143.162 164.279 145.533C166.915 150.295 169.415 155.12 171.869 159.968C174.339 164.807 176.652 169.722 178.981 174.628C181.3 179.538 183.541 184.484 185.703 189.467C185.712 189.486 185.713 189.509 185.705 189.529C185.697 189.549 185.682 189.566 185.663 189.575C185.643 189.584 185.621 189.585 185.6 189.578C185.58 189.571 185.563 189.556 185.554 189.537L185.553 189.537Z" fill="black"/>
<path d="M146.555 138.75C145.138 140.044 143.392 140.922 141.508 141.287C141.417 141.304 141.323 141.303 141.232 141.284C141.141 141.265 141.055 141.229 140.978 141.176C140.902 141.124 140.836 141.057 140.785 140.98C140.734 140.902 140.699 140.815 140.682 140.724C140.665 140.633 140.666 140.539 140.685 140.448C140.704 140.357 140.741 140.271 140.793 140.194C140.846 140.118 140.913 140.052 140.99 140.002C141.068 139.951 141.155 139.916 141.246 139.899C141.307 139.888 141.368 139.885 141.43 139.889C143.21 139.986 144.983 139.593 146.555 138.75ZM145.263 122.119C145.707 123.47 146.028 124.79 146.48 126.059C146.688 126.693 146.941 127.311 147.238 127.908C147.539 128.518 147.922 129.084 148.377 129.589C147.699 129.313 147.114 128.849 146.691 128.251C146.262 127.666 145.928 127.017 145.699 126.329C145.227 124.979 145.077 123.537 145.263 122.119ZM136.258 119.972L125.599 115.819C125.497 115.779 125.415 115.7 125.371 115.6C125.327 115.5 125.324 115.386 125.364 115.284C125.404 115.181 125.483 115.099 125.583 115.055C125.684 115.011 125.797 115.008 125.9 115.048L125.927 115.06L136.258 119.972ZM131.106 122.017L118.524 117.288C118.473 117.269 118.426 117.241 118.386 117.204C118.346 117.167 118.314 117.122 118.292 117.072C118.269 117.023 118.256 116.969 118.255 116.915C118.253 116.86 118.262 116.806 118.281 116.755C118.3 116.704 118.329 116.658 118.366 116.618C118.403 116.578 118.448 116.546 118.498 116.524C118.547 116.501 118.601 116.489 118.656 116.487C118.71 116.486 118.764 116.495 118.815 116.515L118.839 116.524L131.106 122.017ZM125.547 123.999C123.347 123.255 121.125 122.578 118.886 121.983C117.765 121.694 116.641 121.42 115.511 121.207C114.423 120.964 113.305 120.88 112.193 120.96L112.146 120.966C112.093 120.973 112.038 120.97 111.985 120.956C111.933 120.942 111.884 120.918 111.84 120.885C111.797 120.852 111.761 120.811 111.734 120.764C111.706 120.717 111.688 120.666 111.681 120.612C111.674 120.558 111.677 120.503 111.691 120.451C111.705 120.398 111.729 120.349 111.762 120.306C111.795 120.263 111.836 120.226 111.883 120.199C111.929 120.172 111.981 120.154 112.035 120.146L112.061 120.144C113.271 120.112 114.479 120.267 115.642 120.602C116.78 120.887 117.895 121.229 119.003 121.587C121.214 122.318 123.396 123.122 125.547 123.999ZM273.633 197.149L278.367 179.55L280.697 170.747C281.068 169.278 281.444 167.805 281.766 166.338C282.069 164.868 282.294 163.384 282.44 161.891C283.118 155.872 283.675 149.817 284.307 143.773C284.617 140.749 284.958 137.726 285.328 134.702C285.516 133.191 285.728 131.678 285.964 130.165C286.109 129.407 286.234 128.654 286.402 127.891L286.685 126.742C286.816 126.322 286.971 125.91 287.149 125.507C287.191 125.4 287.271 125.313 287.373 125.262L287.47 125.214C288.826 124.515 290.116 123.694 291.322 122.76C292.553 121.83 293.71 120.806 294.783 119.698C296.937 117.483 298.76 114.969 300.195 112.232L300.204 112.215C300.233 112.162 300.268 112.114 300.311 112.072L308.166 104.323C308.408 104.037 308.564 103.688 308.617 103.317C308.688 102.909 308.699 102.493 308.648 102.081C308.623 101.737 308.464 101.416 308.205 101.187C307.914 100.998 307.563 100.924 307.221 100.982C306.844 101.045 306.494 101.215 306.21 101.471L305.235 102.425C304.568 103.071 303.892 103.707 303.197 104.327C301.837 105.636 300.305 106.754 298.643 107.649C298.399 107.756 298.14 107.824 297.876 107.852C297.705 107.875 297.532 107.85 297.375 107.782C297.218 107.713 297.082 107.603 296.982 107.464C296.86 107.214 296.791 106.941 296.78 106.663C296.769 106.385 296.816 106.108 296.918 105.849C297.25 104.949 297.72 104.106 298.311 103.351C299.441 101.868 300.679 100.473 302.017 99.1751C303.394 97.9938 304.48 96.5104 305.19 94.8405C305.506 94.0178 305.399 93.0842 304.59 92.7731C304.198 92.6184 303.772 92.5691 303.354 92.6304C302.937 92.6916 302.543 92.8611 302.211 93.122C300.684 94.1144 299.311 95.3267 298.138 96.7198C297.532 97.4075 296.941 98.1096 296.38 98.8372C295.797 99.5468 295.318 100.325 294.647 101.035C294.314 101.384 293.946 101.699 293.549 101.973C293.348 102.117 293.134 102.245 292.911 102.354C292.77 102.444 292.608 102.497 292.441 102.51C292.273 102.522 292.106 102.493 291.952 102.425C291.854 102.362 291.775 102.274 291.722 102.17C291.689 102.086 291.664 101.999 291.647 101.91C291.632 101.768 291.634 101.626 291.654 101.485C291.685 101.236 291.74 100.991 291.816 100.753C291.956 100.299 292.122 99.8527 292.314 99.4176C292.693 98.5524 293.146 97.7217 293.668 96.9347L295.24 94.6515C296.268 93.1459 297.17 91.5575 297.935 89.9026C298.312 89.1328 298.534 88.2961 298.587 87.4407C298.584 87.271 298.546 87.1037 298.474 86.9499C298.403 86.796 298.299 86.659 298.171 86.5479C298.059 86.4345 297.921 86.3509 297.768 86.3045C297.616 86.2582 297.455 86.2506 297.299 86.2826C296.517 86.5223 295.824 86.9903 295.31 87.6265C294.714 88.2863 294.188 89.0062 293.741 89.7746C293.266 90.5484 292.886 91.3335 292.472 92.1864C292.05 93.0325 291.59 93.8467 291.109 94.6493C290.158 96.2759 289.08 97.8248 287.885 99.2818C287.726 99.4652 287.559 99.6472 287.375 99.8259C287.28 99.9204 287.18 100.01 287.076 100.094C287.006 100.159 286.928 100.214 286.844 100.258C286.778 100.294 286.711 100.325 286.641 100.352C286.52 100.381 286.396 100.388 286.272 100.373C286.055 100.335 285.859 100.216 285.727 100.039C285.653 99.9418 285.596 99.8333 285.556 99.718C285.502 99.5657 285.463 99.4085 285.44 99.2486C285.406 98.9923 285.387 98.7343 285.384 98.4757C285.383 97.5231 285.437 96.5712 285.547 95.6249C285.835 93.7747 286.224 91.9414 286.71 90.1332C286.904 89.2892 286.996 88.4251 286.983 87.5592C286.992 86.7358 286.848 85.9179 286.56 85.1465C286.42 84.8198 286.195 84.5949 286.162 84.6205C286.142 84.6436 286.147 84.6133 286.113 84.6217C286.077 84.6459 286.036 84.6608 285.992 84.6652C285.861 84.7475 285.738 84.8428 285.626 84.9496C285.057 85.5744 284.576 86.2729 284.194 87.0264C283.336 88.5912 282.672 90.2556 282.219 91.9821C281.988 92.8491 281.798 93.7284 281.637 94.6214C281.461 95.5307 281.376 96.384 281.125 97.4184C280.644 99.2797 279.936 101.075 279.019 102.765C278.516 103.765 277.707 104.578 276.709 105.086C276.381 105.216 276.028 105.272 275.676 105.248C275.497 105.239 275.32 105.216 275.145 105.179L274.689 104.983C274.17 104.725 273.711 104.362 273.341 103.918C271.917 102.238 271.608 100.234 270.706 98.9702C270.52 98.682 270.272 98.439 269.98 98.2585C269.688 98.078 269.36 97.9646 269.019 97.9266C268.64 97.8792 268.256 97.8837 267.878 97.9398L267.293 98.0433C267.147 98.1072 266.955 98.15 266.84 98.2126C266.594 98.3753 266.651 98.3318 266.63 98.5068C266.685 98.8324 266.808 99.1431 266.989 99.4195C267.404 100.136 267.968 100.867 268.505 101.649C268.791 102.052 269.053 102.472 269.289 102.906C269.544 103.376 269.736 103.877 269.859 104.397C270.084 105.37 270.198 106.293 270.322 107.224L270.965 112.722C271.089 113.624 271.22 114.525 271.404 115.391C271.489 115.81 271.599 116.223 271.734 116.629C271.82 116.925 271.954 117.204 272.131 117.456L272.322 117.752C272.378 117.839 272.414 117.936 272.429 118.038C272.443 118.14 272.435 118.244 272.406 118.342C270.683 124.121 268.861 129.869 267.093 135.634L261.751 152.916L256.409 170.199L250.937 187.442C250.93 187.463 250.916 187.48 250.897 187.49C250.878 187.501 250.855 187.503 250.835 187.497C250.814 187.49 250.796 187.476 250.786 187.457C250.775 187.438 250.773 187.416 250.779 187.395L255.682 169.981L260.716 152.606L265.749 135.231C267.44 129.444 269.076 123.64 270.811 117.865L271.086 118.752C270.835 118.517 270.628 118.24 270.474 117.932C270.343 117.692 270.237 117.44 270.158 117.178C269.998 116.708 269.868 116.229 269.768 115.743C269.565 114.802 269.428 113.874 269.298 112.946L268.636 107.438C268.515 106.538 268.394 105.626 268.2 104.799C267.976 104.009 267.6 103.27 267.093 102.623C266.585 101.883 266.008 101.154 265.492 100.274C265.171 99.7713 264.971 99.2022 264.905 98.6101C264.876 98.4154 264.89 98.2166 264.947 98.0281C264.979 97.8184 265.06 97.6193 265.183 97.4464C265.391 97.1248 265.678 96.8632 266.018 96.6877C266.289 96.5595 266.57 96.4515 266.857 96.3647L267.634 96.2205C268.17 96.1401 268.714 96.1337 269.252 96.2015C269.829 96.2735 270.385 96.4674 270.882 96.7705C271.379 97.0736 271.805 97.4788 272.134 97.9594C273.328 99.751 273.614 101.624 274.645 102.78C274.863 103.049 275.132 103.272 275.438 103.434C275.498 103.461 275.556 103.491 275.612 103.526C275.667 103.538 275.716 103.523 275.766 103.535C275.864 103.585 275.973 103.499 276.085 103.494C276.722 103.119 277.237 102.567 277.567 101.905C278.421 100.347 279.084 98.6926 279.541 96.9765C279.735 96.2171 279.862 95.2293 280.042 94.3266C280.216 93.4029 280.423 92.477 280.674 91.5602C281.176 89.7132 281.902 87.9346 282.836 86.2643C283.299 85.3724 283.886 84.5509 284.581 83.8246C284.804 83.6156 285.054 83.4359 285.323 83.2899C285.498 83.222 285.678 83.1638 285.86 83.1156C286.072 83.0909 286.287 83.097 286.498 83.1337C286.831 83.2392 287.134 83.4204 287.385 83.663C287.636 83.9057 287.827 84.2031 287.943 84.5321C288.311 85.4922 288.491 86.5137 288.475 87.5416C288.478 88.5248 288.359 89.5046 288.122 90.4587C287.618 92.21 287.208 93.9868 286.892 95.7815C286.774 96.6688 286.707 97.5622 286.691 98.4571C286.69 98.6604 286.7 98.8636 286.722 99.0657C286.731 99.1346 286.746 99.2026 286.765 99.2694C286.773 99.3117 286.77 99.2726 286.747 99.256C286.676 99.1774 286.581 99.1245 286.477 99.1052C286.412 99.0912 286.343 99.0968 286.281 99.1211C286.263 99.1205 286.246 99.1248 286.231 99.1336C286.176 99.1781 286.251 99.1199 286.278 99.0954C286.355 99.0361 286.428 98.9725 286.497 98.9049C286.647 98.765 286.795 98.6095 286.942 98.4456C288.113 97.0625 289.173 95.5901 290.115 94.0418C290.596 93.2674 291.059 92.4798 291.475 91.6794C291.881 90.8771 292.322 90.0054 292.829 89.2125C293.327 88.3917 293.908 87.6248 294.565 86.9242C295.238 86.1298 296.144 85.5673 297.155 85.3165C297.456 85.2687 297.764 85.2925 298.054 85.3861C298.344 85.4796 298.608 85.6403 298.824 85.8551C299.035 86.0518 299.205 86.2881 299.325 86.5503C299.448 86.8205 299.513 87.1136 299.515 87.4105C299.456 88.4033 299.192 89.3732 298.74 90.2591C297.925 91.9456 296.97 93.561 295.885 95.0885C294.752 96.5225 293.764 98.0652 292.934 99.694C292.746 100.101 292.581 100.518 292.442 100.944C292.372 101.144 292.322 101.35 292.291 101.56C292.268 101.67 292.268 101.784 292.289 101.894C292.415 101.891 292.539 101.857 292.649 101.795C292.841 101.701 293.026 101.592 293.2 101.469C293.566 101.22 293.904 100.935 294.211 100.616C294.819 99.9879 295.327 99.1896 295.92 98.475C296.492 97.7434 297.096 97.0353 297.716 96.3413C298.936 94.9125 300.362 93.6727 301.947 92.6625C302.366 92.4036 302.825 92.216 303.306 92.1071C303.817 92.0096 304.346 92.0817 304.812 92.3124C305.06 92.418 305.28 92.581 305.453 92.7879C305.625 92.9948 305.747 93.2397 305.807 93.5027C305.892 94.005 305.843 94.5209 305.664 94.998C304.946 96.7518 303.83 98.3148 302.404 99.5642C301.1 100.852 299.894 102.235 298.796 103.702C298.252 104.408 297.82 105.193 297.515 106.031C297.379 106.375 297.376 106.757 297.506 107.103C297.574 107.285 298.009 107.222 298.392 107.05C299.97 106.162 301.416 105.058 302.687 103.768C303.358 103.142 304.013 102.498 304.658 101.844L305.642 100.838C306.041 100.464 306.54 100.212 307.079 100.112C307.656 100.004 308.253 100.125 308.742 100.45C309.206 100.813 309.507 101.345 309.58 101.93C309.657 102.435 309.658 102.949 309.582 103.454C309.514 104.005 309.294 104.526 308.947 104.959L301.196 112.952L301.311 112.791C300.595 114.234 299.774 115.622 298.854 116.944C297.931 118.265 296.903 119.509 295.781 120.666C294.667 121.831 293.466 122.909 292.187 123.891C290.905 124.897 289.533 125.781 288.087 126.532L288.407 126.239C288.312 126.548 288.182 126.795 288.092 127.142L287.839 128.207C287.686 128.928 287.566 129.675 287.431 130.409C287.189 131.896 286.964 133.388 286.765 134.89C286.366 137.891 286 140.901 285.669 143.92C284.973 149.952 284.409 155.996 283.615 162.038C283.432 163.565 283.169 165.081 282.827 166.579C282.466 168.072 282.06 169.535 281.656 171.003L279.138 179.767C277.394 185.589 275.598 191.393 273.791 197.195C273.785 197.215 273.77 197.233 273.751 197.243C273.732 197.253 273.71 197.256 273.689 197.249C273.668 197.243 273.651 197.229 273.64 197.21C273.629 197.192 273.627 197.169 273.632 197.148L273.633 197.149Z" fill="black"/>
<path d="M293.622 110.043C292.53 108.781 291.363 107.586 290.129 106.463C289.526 105.921 288.865 105.448 288.158 105.052C287.433 104.657 286.644 104.395 285.827 104.278C286.691 104.077 287.596 104.142 288.423 104.464C289.248 104.783 290.009 105.248 290.669 105.838C291.98 106.979 292.993 108.422 293.622 110.043ZM282.929 106.597C283.145 107.93 283.147 109.289 282.936 110.623C282.837 111.292 282.682 111.952 282.471 112.595C282.278 113.259 281.939 113.871 281.48 114.387C281.645 113.748 281.767 113.099 281.844 112.444L282.119 110.501C282.294 109.182 282.565 107.877 282.929 106.597ZM276.63 119.998C275.657 120.111 274.671 120.076 273.708 119.895C272.621 119.716 271.622 119.187 270.864 118.388L270.832 118.352C270.757 118.27 270.7 118.175 270.663 118.071C270.626 117.967 270.609 117.856 270.615 117.746C270.62 117.635 270.647 117.527 270.695 117.427C270.742 117.328 270.809 117.238 270.891 117.164C270.973 117.09 271.068 117.033 271.172 116.996C271.277 116.958 271.387 116.942 271.497 116.948C271.608 116.954 271.716 116.981 271.816 117.029C271.915 117.076 272.005 117.143 272.079 117.225C272.139 117.292 272.188 117.367 272.225 117.45C272.612 118.181 273.229 118.766 273.98 119.114C274.814 119.541 275.707 119.838 276.63 119.998ZM167.897 330.55C167.925 338.483 167.928 346.416 167.828 354.346C167.743 362.276 167.689 370.207 167.509 378.135L167.037 401.92C166.846 409.848 166.58 417.774 166.239 425.698L165.926 425.031C169.371 427.692 173.085 429.986 177.007 431.875C180.925 433.817 185.088 435.218 189.383 436.04C193.677 436.868 198.096 436.806 202.366 435.858C206.615 434.864 210.575 432.899 213.938 430.117C213.984 430.079 214.038 430.05 214.096 430.033C214.153 430.016 214.214 430.011 214.274 430.018L214.297 430.021C218.98 430.576 223.693 430.843 228.408 430.82C233.111 430.813 237.807 430.486 242.466 429.844C247.086 429.236 251.614 428.057 255.944 426.334C260.217 424.713 263.982 421.986 266.855 418.432L266.625 419.253L264.028 396.943L261.563 374.617L259.08 352.293C258.231 344.854 257.399 337.412 256.479 329.977C256.476 329.948 256.484 329.918 256.502 329.894C256.519 329.87 256.546 329.854 256.575 329.849C256.605 329.844 256.635 329.851 256.66 329.868C256.684 329.885 256.701 329.911 256.707 329.941C258.144 337.299 259.348 344.699 260.481 352.107C261.651 359.51 262.645 366.938 263.653 374.362C264.677 381.785 265.58 389.223 266.478 396.661C267.343 404.103 268.152 411.551 268.905 419.006L268.907 419.025C268.936 419.312 268.853 419.6 268.675 419.828C265.518 423.657 261.398 426.577 256.739 428.287C252.224 430.003 247.506 431.13 242.703 431.64C237.952 432.181 233.168 432.364 228.39 432.188C223.625 432.052 218.873 431.635 214.158 430.937L214.517 430.841C211 433.625 206.904 435.586 202.53 436.579C198.158 437.496 193.652 437.57 189.253 436.798C184.866 436.038 180.589 434.74 176.52 432.933C172.424 431.148 168.529 428.933 164.902 426.324C164.804 426.254 164.725 426.161 164.671 426.054C164.616 425.947 164.588 425.829 164.588 425.709L164.589 425.657C164.654 417.726 164.783 409.797 164.975 401.869L165.687 378.09C165.902 370.163 166.242 362.239 166.552 354.314C166.847 346.389 167.245 338.466 167.667 330.544C167.669 330.514 167.682 330.486 167.704 330.466C167.726 330.446 167.755 330.435 167.785 330.435C167.815 330.436 167.843 330.449 167.864 330.47C167.885 330.491 167.897 330.52 167.897 330.55L167.897 330.55Z" fill="black"/>
<path d="M223.675 354.964C225.513 354.346 227.317 353.682 229.115 353.024C230.905 352.349 232.685 351.656 234.404 350.847C236.138 350.081 237.812 349.186 239.411 348.168C241.028 347.158 242.49 345.918 243.752 344.488C242.819 346.223 241.515 347.73 239.932 348.901C238.372 350.093 236.677 351.097 234.883 351.893C233.109 352.702 231.272 353.365 229.391 353.876C227.522 354.407 225.609 354.771 223.675 354.964Z" fill="black"/>
<path d="M214.228 430.479C214.598 423.946 215.243 417.434 215.986 410.933C216.727 404.432 217.686 397.956 218.734 391.494C219.86 385.046 221.082 378.607 222.684 372.253C224.164 365.868 226.208 359.626 228.793 353.602L227.211 358.241L225.864 362.948C225.027 366.101 224.205 369.259 223.546 372.456C222.836 375.64 222.199 378.841 221.557 382.04C220.98 385.253 220.374 388.46 219.868 391.685C218.728 398.115 217.788 404.579 216.86 411.046C216.386 414.279 215.94 417.516 215.52 420.756L214.228 430.479Z" fill="black"/>
<path d="M225.641 431.435L226.557 414.188C226.84 408.441 227.157 402.696 227.303 396.948C227.541 391.203 227.627 385.458 227.561 379.711C227.53 376.84 227.44 373.968 227.199 371.11C227.069 368.24 226.545 365.402 225.641 362.676C226.761 365.346 227.476 368.169 227.76 371.051C228.117 373.92 228.307 376.803 228.447 379.686C228.702 385.454 228.601 391.225 228.452 396.987C228.21 402.747 227.909 408.503 227.437 414.246C226.964 419.988 226.41 425.724 225.641 431.435ZM166.439 371.017C170.149 370.563 173.88 370.303 177.617 370.238C177.73 370.236 177.843 370.255 177.948 370.296C178.053 370.337 178.15 370.398 178.232 370.476C178.313 370.554 178.379 370.647 178.425 370.75C178.47 370.854 178.495 370.965 178.498 371.078L178.498 371.082L178.499 371.12C178.535 373.011 178.579 374.903 178.496 376.794C178.417 378.685 178.259 380.577 178.137 382.468C177.863 386.245 177.861 390.038 178.131 393.815C178.23 395.707 178.386 397.598 178.466 399.489C178.547 401.38 178.583 403.272 178.63 405.163C178.759 408.946 178.74 412.728 178.616 416.511L178.613 416.595C178.605 416.819 178.518 417.033 178.366 417.198C178.214 417.364 178.008 417.469 177.785 417.495C176.669 417.634 175.545 417.699 174.421 417.691C173.298 417.692 172.177 417.602 171.069 417.421C169.939 417.25 168.842 416.91 167.814 416.412C167.287 416.173 166.813 415.83 166.423 415.402C166.032 414.975 165.732 414.473 165.54 413.927C165.536 413.914 165.535 413.9 165.537 413.887C165.539 413.873 165.543 413.86 165.55 413.848C165.557 413.836 165.566 413.826 165.577 413.818C165.588 413.809 165.6 413.803 165.613 413.8C165.636 413.794 165.659 413.796 165.68 413.805C165.701 413.813 165.719 413.829 165.731 413.849C166.282 414.726 167.152 415.357 168.157 415.61C169.146 415.907 170.172 416.066 171.205 416.081C172.253 416.094 173.302 416.054 174.346 415.961C175.386 415.857 176.457 415.724 177.449 415.527L176.619 416.511C176.494 412.728 176.476 408.946 176.605 405.163C176.651 403.272 176.688 401.38 176.768 399.489C176.848 397.598 177.004 395.707 177.103 393.815C177.373 390.038 177.371 386.245 177.097 382.468C176.975 380.577 176.818 378.685 176.739 376.794C176.655 374.903 176.7 373.011 176.736 371.12L177.617 372.002C173.88 371.936 170.149 371.677 166.439 371.223C166.414 371.22 166.391 371.208 166.374 371.189C166.357 371.17 166.348 371.145 166.348 371.12C166.348 371.095 166.357 371.07 166.374 371.051C166.391 371.032 166.414 371.02 166.439 371.017L166.439 371.017Z" fill="black"/>
<path d="M166.286 379.271C168.214 379.18 170.146 379.305 172.046 379.645C173.954 379.935 175.823 380.441 177.617 381.154C175.689 381.248 173.757 381.123 171.857 380.78C169.95 380.488 168.081 379.981 166.286 379.271ZM170.083 428.054C168.726 429.542 167.442 431.091 166.221 432.676C165.071 434.35 163.811 435.945 162.448 437.45C161.727 438.184 160.962 438.861 160.177 439.517C159.359 440.172 158.514 440.737 157.676 441.304L152.655 444.643C146.008 449.072 139.749 454.059 133.947 459.549C131.053 462.29 128.303 465.179 125.654 468.158C123.031 471.179 120.567 474.257 118.09 477.471C115.583 480.659 112.902 483.705 110.058 486.596C107.235 489.524 104.042 491.977 101.038 494.676C102.239 493.049 103.596 491.536 104.913 490.015C106.22 488.478 107.601 487.02 108.931 485.535C111.612 482.571 114.107 479.448 116.5 476.254C121.161 469.613 126.487 463.464 132.395 457.904C135.345 455.114 138.454 452.498 141.707 450.068C144.941 447.626 148.301 445.355 151.772 443.264C153.492 442.206 155.254 441.213 156.982 440.2C157.844 439.693 158.695 439.175 159.495 438.633C160.296 438.054 161.082 437.446 161.819 436.793C163.254 435.406 164.594 433.925 165.832 432.36C167.166 430.845 168.585 429.407 170.083 428.054ZM111.945 518.41C113.903 516.451 115.919 514.551 117.959 512.677C120 510.805 122.032 508.918 124.135 507.113C128.332 503.494 132.591 499.941 136.975 496.528C141.37 493.104 145.954 489.929 150.705 487.018C153.113 485.546 155.62 484.244 158.21 483.121C158.858 482.831 159.554 482.614 160.23 482.367C160.886 482.131 161.501 481.937 162.133 481.692C163.384 481.203 164.627 480.671 165.844 480.07C175.584 475.02 184.522 468.557 192.37 460.89C196.337 457.091 199.93 452.918 203.097 448.43C206.386 443.995 208.652 438.886 209.731 433.471C209.272 439.03 206.831 444.252 203.936 448.98C200.926 453.682 197.434 458.057 193.515 462.033C189.645 466.054 185.466 469.766 181.016 473.136C176.585 476.567 171.834 479.567 166.831 482.094C165.571 482.725 164.273 483.291 162.95 483.816C162.294 484.075 161.59 484.303 160.947 484.54C160.327 484.773 159.7 484.971 159.086 485.25C156.591 486.312 154.172 487.547 151.849 488.946C147.15 491.743 142.588 494.839 138.137 498.087C133.646 501.284 129.252 504.634 124.915 508.058C120.551 511.45 116.245 514.92 111.945 518.41ZM173.445 450.382C172.309 452.264 171.12 454.02 170.17 455.878C169.678 456.779 169.296 457.735 169.032 458.727C168.751 459.731 168.761 460.794 169.063 461.792C168.695 461.351 168.423 460.838 168.265 460.286C168.107 459.734 168.066 459.155 168.145 458.586C168.264 457.453 168.604 456.354 169.146 455.352C170.17 453.382 171.643 451.679 173.445 450.382Z" fill="black"/>
<path d="M113.008 519.563C111.935 518.706 110.587 518.268 109.215 518.332C106.318 518.409 99.9741 517.743 97.7184 510.963C97.2354 509.337 97.0875 507.629 97.2836 505.944C97.4796 504.259 98.0156 502.631 98.8591 501.159C100.512 498.121 102.268 493.597 99.8972 490.957C96.0779 486.753 88.2086 494.699 88.2086 494.699C88.2086 494.699 82.8385 498.48 78.3528 498.096C76.5177 497.917 74.6664 498.172 72.948 498.84C71.2295 499.508 69.6917 500.57 68.4585 501.94C65.1647 505.619 63.4217 511.399 70.9833 519.255C70.9833 519.255 76.6995 524.395 79.7754 543.504C82.8512 562.613 90.5412 586.157 103.909 579.198C104.425 578.81 104.849 578.313 105.149 577.74C105.448 577.168 105.615 576.536 105.639 575.891C105.536 575.28 105.281 574.704 104.898 574.216C104.516 573.728 104.017 573.343 103.447 573.097C102.892 572.831 102.293 572.67 101.679 572.623C101.041 572.586 100.402 572.612 99.769 572.7C98.3699 572.756 96.974 572.525 95.6678 572.021C93.1031 570.896 90.9368 569.025 89.4518 566.65C87.9927 564.354 86.8624 561.865 86.0939 559.255L86.0683 559.204V559.166C85.0558 554.411 83.9792 549.656 82.7488 544.965C82.1336 542.619 81.48 540.274 80.7367 537.98C80.09 535.706 79.1417 533.53 77.9171 531.508C76.6267 529.355 75.5943 527.058 74.8412 524.664C74.0466 522.331 73.3801 519.96 72.8162 517.564C72.2584 515.163 71.873 512.726 71.6627 510.271C71.3345 507.823 71.5533 505.332 72.3035 502.978C71.8165 505.363 71.8165 507.822 72.3035 510.207C72.7129 512.595 73.2433 514.96 73.8927 517.294C74.5592 519.627 75.3153 521.921 76.1997 524.164C77.0332 526.394 78.085 528.536 79.3397 530.559C79.6345 530.995 80.0318 531.649 80.3522 532.187C80.6342 532.764 80.929 533.328 81.1725 533.905C81.6723 535.058 82.0952 536.224 82.4926 537.403C83.2744 539.749 83.9536 542.107 84.5944 544.478C85.812 549.233 86.9013 553.988 87.7985 558.82C88.485 561.27 89.4753 563.625 90.7463 565.83C91.9788 568.038 93.851 569.821 96.1164 570.944C97.2579 571.454 98.4932 571.72 99.7434 571.726C100.427 571.678 101.114 571.7 101.794 571.79C102.496 571.901 103.17 572.145 103.781 572.507C104.407 572.836 104.941 573.317 105.333 573.906C105.725 574.495 105.962 575.173 106.024 575.878C105.951 576.557 105.723 577.21 105.356 577.786C104.989 578.362 104.494 578.845 103.909 579.198C103.909 579.198 109.035 579.095 109.023 566.497C109.01 559.063 109.176 547.81 109.305 539.851C108.138 539.351 107.074 538.774 106.023 538.211L102.922 536.532C101.928 536 100.9 535.534 99.8459 535.135C98.7884 534.688 97.614 534.598 96.5008 534.879C96.9504 534.378 97.5221 534.003 98.1601 533.79C98.7981 533.576 99.4805 533.532 100.141 533.661C101.43 533.811 102.679 534.207 103.819 534.827C104.927 535.417 105.957 536.145 106.882 536.993C107.84 537.808 108.658 538.773 109.304 539.851C109.407 534.328 109.484 530.38 109.484 530.38C108.51 529.521 107.702 528.662 106.805 527.906C105.948 527.149 105.031 526.463 104.062 525.856C102.067 524.616 99.8926 523.691 97.6158 523.113C98.8468 522.687 100.168 522.59 101.448 522.831C102.744 523.044 103.982 523.519 105.088 524.228C106.199 524.92 107.162 525.826 107.92 526.894C108.682 527.932 109.215 529.12 109.484 530.38C109.484 530.38 117.981 523.728 113.008 519.563ZM87.3243 523.036C85.0558 523.562 80.8135 520.242 82.0951 515.667C83.5819 510.348 82.8001 506.939 85.0685 506.413C87.3371 505.888 89.6825 509.194 90.2977 513.783C90.9257 518.371 89.5928 522.511 87.3243 523.036ZM99.9997 543.324C101.329 543.398 102.627 543.756 103.806 544.376C104.965 544.967 106.021 545.742 106.933 546.67C107.863 547.553 108.615 548.606 109.151 549.771C106.946 548.477 105.011 547.131 102.935 546.093C101.918 545.572 100.859 545.139 99.769 544.799C98.611 544.512 97.4244 544.357 96.2317 544.337C97.3459 543.603 98.6674 543.247 99.9997 543.324ZM228.688 430.792C227.561 432.462 226.516 434.18 225.537 435.926C224.643 437.749 223.627 439.51 222.496 441.196C221.889 442.027 221.231 442.807 220.549 443.571C219.834 444.337 219.08 445.019 218.333 445.702L213.849 449.733C207.915 455.079 202.445 460.921 197.501 467.194C195.035 470.325 192.733 473.582 190.543 476.913C188.385 480.284 186.394 483.686 184.41 487.226C182.391 490.743 180.179 494.145 177.785 497.418C175.417 500.724 172.612 503.615 170.032 506.72C170.984 504.937 172.108 503.243 173.19 501.548C174.26 499.837 175.416 498.194 176.516 496.532C178.739 493.211 180.755 489.759 182.659 486.251C186.308 479.005 190.686 472.149 195.726 465.791C198.24 462.603 200.937 459.563 203.804 456.688C206.65 453.803 209.644 451.069 212.776 448.497C214.325 447.2 215.924 445.963 217.486 444.709C218.266 444.083 219.033 443.447 219.746 442.795C220.455 442.106 221.144 441.39 221.778 440.637C222.997 439.057 224.109 437.397 225.107 435.669C226.207 433.976 227.402 432.348 228.688 430.792ZM184.264 528.623C191.385 519.24 199.08 510.307 207.304 501.874C211.423 497.612 215.838 493.647 220.516 490.008C221.71 489.111 222.931 488.242 224.209 487.435C225.455 486.624 226.931 485.916 228.119 485.276C230.614 483.852 232.984 482.218 235.203 480.393C239.705 476.713 243.891 472.663 247.718 468.286C251.578 463.922 255.076 459.25 258.178 454.319C261.297 449.399 263.743 444.083 265.45 438.514C267.267 432.929 267.415 426.936 265.875 421.269C268.019 426.799 267.758 433.025 266.379 438.759C264.89 444.514 262.581 450.025 259.522 455.122C253.505 465.384 245.752 474.522 236.608 482.13C234.296 484.05 231.826 485.77 229.222 487.271C227.824 488.022 226.656 488.607 225.427 489.383C224.215 490.134 223.035 490.96 221.873 491.819C217.262 495.382 212.864 499.213 208.701 503.292C204.477 507.339 200.344 511.494 196.302 515.754C192.248 519.997 188.236 524.287 184.264 528.623ZM235.252 452.397C234.401 454.424 233.479 456.334 232.808 458.31C232.452 459.272 232.212 460.274 232.096 461.294C231.963 462.328 232.127 463.378 232.571 464.322C232.142 463.939 231.799 463.471 231.562 462.948C231.326 462.424 231.202 461.857 231.197 461.283C231.151 460.144 231.328 459.008 231.719 457.938C232.447 455.84 233.657 453.942 235.252 452.397Z" fill="black"/>
<path d="M188.343 576.622C187.664 572.021 186.831 565.92 186.049 560.063C183.678 559.089 181.563 558.038 179.372 557.32C178.29 556.954 177.18 556.679 176.052 556.5C174.863 556.377 173.662 556.394 172.476 556.551C173.475 555.669 174.727 555.127 176.052 555C177.379 554.896 178.713 555.061 179.974 555.487C181.207 555.902 182.363 556.517 183.396 557.307C184.446 558.051 185.346 558.986 186.049 560.063C185.588 556.577 185.139 553.167 184.768 550.22C183.585 549.899 182.422 549.514 181.281 549.066L177.975 547.862C176.91 547.482 175.823 547.17 174.719 546.926C173.605 546.633 172.425 546.714 171.362 547.156C171.741 546.601 172.255 546.151 172.856 545.848C173.456 545.545 174.124 545.4 174.796 545.426C176.094 545.392 177.386 545.605 178.603 546.055C179.79 546.473 180.918 547.041 181.961 547.746C183.018 548.422 183.965 549.256 184.768 550.22C184.05 544.747 183.563 540.825 183.563 540.825C182.486 540.12 181.551 539.377 180.551 538.762C179.594 538.141 178.591 537.592 177.552 537.121C175.394 536.194 173.108 535.597 170.772 535.353C171.922 534.745 173.215 534.457 174.514 534.52C175.827 534.548 177.121 534.836 178.321 535.366C179.522 535.896 180.607 536.658 181.512 537.608C182.416 538.523 183.115 539.62 183.563 540.825C183.563 540.825 191.009 533.007 185.485 529.611C184.3 528.914 182.899 528.677 181.551 528.944C178.693 529.432 172.336 529.701 169.106 523.318C168.394 521.778 168.002 520.109 167.953 518.413C167.905 516.716 168.201 515.028 168.824 513.449C170.016 510.207 171.092 505.465 168.363 503.209C163.979 499.595 157.34 508.605 157.34 508.605C157.34 508.605 152.573 513.129 148.074 513.398C146.234 513.488 144.441 514.008 142.838 514.916C141.236 515.824 139.869 517.095 138.846 518.627C136.129 522.754 135.245 528.714 143.857 535.404C143.857 535.404 150.253 539.659 156.072 558.115C161.89 576.583 172.912 598.755 185.126 589.925C185.582 589.47 185.93 588.918 186.143 588.31C186.356 587.702 186.429 587.054 186.357 586.413C186.168 585.824 185.835 585.29 185.387 584.863C184.939 584.435 184.391 584.127 183.793 583.966C183.206 583.778 182.589 583.704 181.974 583.747C181.335 583.806 180.704 583.926 180.089 584.106C178.71 584.363 177.293 584.337 175.924 584.029C173.227 583.287 170.816 581.751 169.003 579.621C167.225 577.556 165.745 575.253 164.607 572.777L164.582 572.738L164.569 572.7C162.877 568.15 161.121 563.6 159.224 559.127C158.276 556.897 157.289 554.68 156.225 552.514C155.25 550.36 153.996 548.343 152.496 546.516C150.907 544.575 149.552 542.455 148.459 540.197C147.338 538.002 146.329 535.752 145.434 533.456C144.528 531.168 143.791 528.816 143.229 526.42C142.553 524.041 142.409 521.542 142.807 519.102C142.669 521.531 143.022 523.963 143.845 526.253C144.602 528.555 145.475 530.818 146.459 533.033C147.446 535.238 148.535 537.403 149.74 539.505C150.886 541.585 152.234 543.547 153.765 545.362C154.123 545.76 154.61 546.349 155.008 546.836C155.354 547.362 155.738 547.887 156.072 548.426C156.725 549.489 157.315 550.579 157.879 551.681C158.994 553.885 160.006 556.128 160.98 558.384C162.877 562.908 164.646 567.471 166.235 572.11C167.267 574.435 168.584 576.622 170.157 578.621C171.704 580.622 173.816 582.113 176.219 582.902C177.424 583.233 178.684 583.315 179.923 583.145C180.592 582.998 181.275 582.921 181.961 582.915C182.668 582.922 183.368 583.061 184.024 583.325C184.693 583.56 185.292 583.961 185.765 584.49C186.238 585.018 186.569 585.658 186.728 586.349C186.76 587.029 186.631 587.707 186.353 588.328C186.075 588.949 185.655 589.496 185.126 589.925C185.126 589.925 190.176 589.079 188.343 576.622ZM160.57 536.775C158.404 537.608 153.726 534.955 154.328 530.239C155.033 524.753 153.765 521.498 155.931 520.652C158.097 519.806 160.903 522.728 162.185 527.176C163.454 531.636 162.736 535.93 160.57 536.775ZM83.5732 156.982C84.2785 163.062 85.3268 169.097 86.7129 175.058C88.0558 180.971 89.9206 186.754 92.2855 192.337C93.4428 195.116 94.8098 197.802 96.3746 200.374C97.9018 202.957 99.6608 205.396 101.63 207.66C103.62 209.916 105.84 211.959 108.252 213.757C110.744 215.516 113.408 217.016 116.204 218.235C113.181 217.494 110.275 216.343 107.566 214.812C104.87 213.197 102.385 211.253 100.168 209.025C95.8123 204.482 92.3415 199.167 89.9332 193.352C87.5111 187.61 85.7748 181.603 84.7601 175.454C83.6759 169.361 83.2777 163.165 83.5732 156.982ZM76.4179 198.112C78.3641 203.662 80.6745 209.079 83.3342 214.325C84.687 216.916 86.0816 219.477 87.6481 221.927C89.1649 224.398 90.8449 226.765 92.6768 229.013C96.227 233.563 100.543 237.46 105.432 240.527C107.915 242.005 110.547 243.216 113.285 244.14C116.081 245.03 118.956 245.651 121.871 245.993C118.884 246.174 115.886 245.96 112.956 245.355C110.003 244.692 107.145 243.655 104.453 242.272C101.777 240.839 99.2625 239.124 96.953 237.154C94.678 235.16 92.5794 232.974 90.6807 230.619C86.9575 225.9 83.8806 220.706 81.5316 215.174C79.1295 209.719 77.4119 203.988 76.4179 198.112ZM25.7547 454.575C23.9033 460.408 22.383 466.342 21.2009 472.347C19.9992 478.29 19.3272 484.328 19.1928 490.39C19.1081 493.399 19.2523 496.41 19.6243 499.397C19.957 502.38 20.5603 505.326 21.4267 508.199C22.3162 511.073 23.5018 513.846 24.9643 516.475C26.5149 519.102 28.3289 521.563 30.3784 523.822C27.926 521.907 25.748 519.664 23.9056 517.156C22.1095 514.577 20.6408 511.785 19.5333 508.844C17.4256 502.913 16.4415 496.642 16.6314 490.351C16.7785 484.121 17.66 477.93 19.2575 471.907C20.7691 465.905 22.9484 460.091 25.7547 454.575ZM2.35319 489.146C1.85028 495.006 1.73482 500.894 2.00758 506.77C2.17826 509.687 2.39888 512.595 2.82231 515.472C3.19168 518.348 3.75241 521.196 4.50079 523.997C5.87122 529.604 8.2087 534.928 11.4082 539.732C13.0661 542.098 14.9696 544.283 17.0869 546.249C19.2719 548.208 21.6391 549.953 24.1563 551.462C21.3583 550.401 18.7128 548.976 16.2884 547.222C13.8674 545.405 11.6871 543.287 9.79967 540.921C7.94687 538.516 6.35787 535.92 5.06002 533.176C3.80341 530.424 2.78683 527.569 2.02166 524.642C0.562289 518.812 -0.112469 512.813 0.0152557 506.804C0.0629942 500.844 0.848283 494.913 2.35319 489.146ZM328.534 295.088C328.793 301.272 328.359 307.466 327.239 313.553C326.188 319.695 324.416 325.692 321.961 331.419C319.518 337.22 316.017 342.515 311.634 347.033C309.405 349.248 306.908 351.177 304.203 352.776C301.485 354.291 298.571 355.425 295.545 356.148C298.348 354.946 301.021 353.461 303.522 351.717C305.945 349.933 308.177 347.903 310.18 345.659C312.163 343.406 313.936 340.978 315.478 338.403C317.058 335.841 318.441 333.163 319.614 330.391C322.012 324.822 323.911 319.05 325.288 313.145C326.709 307.192 327.793 301.164 328.534 295.088ZM335.448 336.258C334.419 342.129 332.668 347.85 330.234 353.291C327.853 358.809 324.745 363.985 320.995 368.681C319.082 371.025 316.971 373.199 314.684 375.18C312.363 377.136 309.839 378.837 307.154 380.253C304.454 381.621 301.591 382.641 298.633 383.287C295.699 383.875 292.701 384.072 289.715 383.873C292.631 383.547 295.51 382.944 298.311 382.07C301.054 381.162 303.694 379.967 306.185 378.504C311.092 375.465 315.431 371.593 319.008 367.064C320.853 364.827 322.547 362.47 324.078 360.008C325.659 357.567 327.069 355.014 328.437 352.431C331.127 347.201 333.469 341.798 335.448 336.258ZM84.2445 52.7639C84.256 52.4855 84.2106 52.2076 84.1112 51.9472C84.0118 51.6868 83.8604 51.4494 83.6662 51.2495L75.8862 43.9334C75.2898 43.4321 74.5299 43.6773 74.1434 44.4747C73.9544 44.8759 73.8829 45.3225 73.937 45.7627C73.9912 46.2029 74.1688 46.6188 74.4494 46.9623L80.6086 52.764L74.4494 58.5658C74.077 58.9823 73.8712 59.5215 73.8712 60.0802C73.8712 60.639 74.077 61.1781 74.4494 61.5946L80.6086 67.3965L74.4494 73.1982C74.077 73.6147 73.8712 74.1539 73.8712 74.7127C73.8712 75.2714 74.077 75.8106 74.4494 76.2272L82.2295 83.5433C82.8259 84.0993 83.6273 83.8725 84.0215 83.0422C84.2195 82.6331 84.2915 82.1744 84.2283 81.7243C84.165 81.2742 83.9694 80.8531 83.6662 80.5145L77.507 74.7126L83.6662 68.911C84.0386 68.4944 84.2444 67.9552 84.2444 67.3965C84.2444 66.8378 84.0386 66.2986 83.6662 65.882L77.507 60.0802L83.6662 54.2785C83.8604 54.0786 84.0118 53.8412 84.1112 53.5808C84.2106 53.3204 84.256 53.0424 84.2444 52.764L84.2445 52.7639ZM37.8842 369.769C37.8636 370.298 38.028 370.818 38.3491 371.239L43.2999 376.873L38.3491 382.507C38.1129 382.861 37.9659 383.267 37.9205 383.69C37.8751 384.113 37.9327 384.54 38.0885 384.936C38.397 385.725 39.0244 385.963 39.5039 385.448L45.7577 378.344C46.0602 377.913 46.2226 377.399 46.2226 376.873C46.2226 376.347 46.0602 375.833 45.7577 375.403L40.8068 369.769L45.7577 364.135C46.0602 363.705 46.2226 363.191 46.2226 362.665C46.2226 362.138 46.0602 361.625 45.7577 361.194L40.8068 355.56L45.7577 349.927C45.9938 349.573 46.1408 349.167 46.1862 348.744C46.2316 348.321 46.174 347.893 46.0183 347.497C45.7098 346.709 45.0823 346.47 44.6028 346.985L38.3491 354.09C38.0465 354.521 37.8842 355.034 37.8842 355.56C37.8842 356.087 38.0465 356.6 38.3491 357.031L43.2999 362.665L38.3491 368.298C38.0244 368.718 37.8596 369.239 37.8842 369.769ZM8.40527 156.917C8.38464 157.446 8.54903 157.966 8.87018 158.388L13.821 164.021L8.87018 169.655C8.63403 170.009 8.48697 170.415 8.44159 170.838C8.3962 171.261 8.45382 171.689 8.60953 172.085C8.91807 172.873 9.54551 173.111 10.025 172.596L16.2787 165.492C16.5813 165.061 16.7436 164.548 16.7436 164.021C16.7436 163.495 16.5813 162.982 16.2787 162.551L11.3279 156.917L16.2787 151.284C16.5813 150.853 16.7437 150.339 16.7437 149.813C16.7437 149.287 16.5813 148.773 16.2787 148.342L11.3279 142.709L16.2787 137.075C16.5149 136.721 16.6619 136.315 16.7073 135.892C16.7527 135.469 16.6951 135.041 16.5394 134.645C16.2308 133.857 15.6034 133.619 15.1239 134.134L8.87018 141.238C8.56762 141.669 8.40527 142.182 8.40527 142.709C8.40527 143.235 8.56762 143.748 8.87018 144.179L13.821 149.813L8.87018 155.446C8.54548 155.866 8.38067 156.387 8.40527 156.917ZM364.268 437.129C364.249 437.686 364.446 438.229 364.82 438.643L370.698 444.445L364.82 450.247C364.543 450.595 364.367 451.013 364.313 451.454C364.258 451.896 364.327 452.344 364.51 452.749C364.877 453.561 365.622 453.806 366.191 453.276L373.616 445.96C373.972 445.535 374.168 444.999 374.168 444.445C374.168 443.891 373.972 443.355 373.616 442.931L367.738 437.129L373.616 431.327C373.972 430.903 374.168 430.367 374.168 429.813C374.168 429.259 373.972 428.722 373.616 428.298L367.738 422.496L373.616 416.695C373.893 416.347 374.068 415.929 374.123 415.487C374.178 415.046 374.109 414.598 373.925 414.192C373.559 413.38 372.814 413.135 372.245 413.666L364.82 420.982C364.463 421.406 364.268 421.942 364.268 422.496C364.268 423.05 364.463 423.587 364.82 424.011L370.698 429.813L364.82 435.614C364.633 435.818 364.488 436.057 364.393 436.317C364.299 436.577 364.256 436.852 364.268 437.129ZM384.678 208.518L380.06 212.689C378.922 213.891 378.287 215.483 378.287 217.139C378.287 218.794 378.922 220.387 380.06 221.588L381.39 222.803C381.766 223.203 381.976 223.732 381.976 224.281C381.976 224.83 381.766 225.359 381.39 225.759L380.06 226.974C378.922 228.175 378.287 229.768 378.287 231.423C378.287 233.079 378.922 234.671 380.06 235.873L381.39 237.087C381.766 237.487 381.976 238.016 381.976 238.566C381.976 239.115 381.766 239.644 381.39 240.044L380.06 241.258C378.922 242.46 378.287 244.052 378.287 245.708C378.287 247.363 378.922 248.956 380.06 250.158L381.39 251.372C381.766 251.772 381.976 252.301 381.976 252.85C381.976 253.4 381.766 253.928 381.39 254.329L376.762 258.514C376.469 258.842 376.281 259.249 376.222 259.685C376.163 260.12 376.237 260.563 376.432 260.957C376.489 261.132 376.588 261.291 376.72 261.419C376.852 261.547 377.014 261.64 377.191 261.691C377.368 261.742 377.555 261.748 377.735 261.71C377.915 261.672 378.083 261.59 378.224 261.471L382.841 257.3C383.98 256.098 384.615 254.506 384.615 252.85C384.615 251.195 383.98 249.602 382.841 248.401L381.511 247.186C381.318 246.994 381.167 246.763 381.068 246.508C380.969 246.253 380.924 245.981 380.936 245.708C380.923 245.434 380.969 245.161 381.07 244.906C381.171 244.651 381.325 244.42 381.522 244.23L382.852 243.015C383.984 241.81 384.615 240.219 384.615 238.566C384.615 236.912 383.984 235.321 382.852 234.116L381.522 232.902C381.146 232.502 380.936 231.973 380.936 231.423C380.936 230.874 381.146 230.345 381.522 229.945L382.852 228.731C383.984 227.526 384.615 225.934 384.615 224.281C384.615 222.628 383.984 221.036 382.852 219.831L381.522 218.617C381.146 218.217 380.936 217.688 380.936 217.139C380.936 216.589 381.146 216.061 381.522 215.66L386.14 211.475C386.446 211.151 386.646 210.74 386.712 210.299C386.779 209.858 386.709 209.407 386.512 209.007C386.455 208.827 386.353 208.663 386.217 208.533C386.08 208.402 385.912 208.308 385.729 208.259C385.546 208.21 385.354 208.208 385.17 208.253C384.986 208.299 384.817 208.39 384.678 208.518V208.518ZM330.256 51.4845L325.377 47.1972C324.981 46.7925 324.76 46.2489 324.76 45.6828C324.76 45.1167 324.981 44.5731 325.377 44.1684L326.779 42.9246C327.977 41.7098 328.648 40.0724 328.648 38.3665C328.648 36.6607 327.977 35.0233 326.779 33.8085L325.377 32.5649C324.981 32.1602 324.76 31.6165 324.76 31.0504C324.76 30.4843 324.981 29.9407 325.377 29.536L326.779 28.2921C327.977 27.0773 328.648 25.44 328.648 23.7342C328.648 22.0283 327.977 20.391 326.779 19.1762L325.377 17.9325C324.981 17.5277 324.76 16.9841 324.76 16.4179C324.76 15.8518 324.981 15.3082 325.377 14.9034L326.779 13.6598C327.977 12.445 328.648 10.8076 328.648 9.10178C328.648 7.39591 327.977 5.75858 326.779 4.54377L321.912 0.2711C321.763 0.149312 321.587 0.0651054 321.399 0.0255883C321.211 -0.0139287 321.016 -0.00759894 320.831 0.0440492C320.645 0.0956974 320.475 0.191148 320.335 0.322336C320.194 0.453524 320.087 0.616598 320.023 0.797795C319.817 1.20015 319.74 1.65605 319.803 2.10365C319.865 2.55125 320.063 2.96889 320.371 3.29991L325.249 7.58732C325.645 7.99204 325.867 8.53566 325.867 9.10178C325.867 9.6679 325.645 10.2115 325.249 10.6162L323.847 11.8599C322.65 13.0746 321.978 14.712 321.978 16.4179C321.978 18.1239 322.65 19.7612 323.847 20.976L325.249 22.2198C325.645 22.6245 325.867 23.1681 325.867 23.7342C325.867 24.3003 325.645 24.8439 325.249 25.2486L323.847 26.4924C322.65 27.7072 321.978 29.3445 321.978 31.0504C321.978 32.7563 322.65 34.3937 323.847 35.6084L325.249 36.8521C325.645 37.2568 325.867 37.8005 325.867 38.3666C325.867 38.9327 325.645 39.4764 325.249 39.8811L323.847 41.1249C322.65 42.3396 321.978 43.9769 321.978 45.6828C321.978 47.3887 322.65 49.0261 323.847 50.2408L328.715 54.5136C328.862 54.6422 329.039 54.7329 329.23 54.7777C329.42 54.8225 329.619 54.8201 329.808 54.7707C329.998 54.7213 330.172 54.6264 330.316 54.4943C330.461 54.3621 330.571 54.1967 330.637 54.0124C330.848 53.6048 330.926 53.1407 330.857 52.6865C330.789 52.2324 330.578 51.8116 330.256 51.4845H330.256ZM238.852 25.4773C238.95 26.943 238.606 28.4045 237.863 29.6719C237.121 30.9393 236.014 31.9539 234.687 32.5839C233.36 33.2139 231.874 33.4301 230.422 33.2045C228.971 32.9788 227.621 32.3217 226.547 31.3185C225.474 30.3154 224.728 29.0126 224.405 27.5795C224.082 26.1464 224.198 24.6494 224.737 23.2829C225.276 21.9164 226.214 20.7438 227.428 19.9174C228.643 19.091 230.078 18.6491 231.547 18.649C233.42 18.5897 235.24 19.2749 236.609 20.5546C237.978 21.8344 238.785 23.6044 238.852 25.4773ZM323.816 486.387C323.915 487.857 323.57 489.324 322.825 490.595C322.08 491.866 320.97 492.884 319.638 493.516C318.307 494.148 316.816 494.365 315.36 494.139C313.904 493.913 312.549 493.253 311.473 492.247C310.396 491.241 309.647 489.934 309.324 488.496C309 487.058 309.116 485.557 309.657 484.186C310.198 482.815 311.138 481.638 312.357 480.809C313.575 479.98 315.015 479.537 316.488 479.537C318.367 479.478 320.194 480.165 321.567 481.449C322.94 482.733 323.749 484.508 323.816 486.387ZM406.987 138.75C407.066 139.928 406.789 141.102 406.193 142.121C405.596 143.139 404.706 143.955 403.64 144.461C402.573 144.967 401.379 145.141 400.213 144.96C399.046 144.778 397.961 144.25 397.099 143.444C396.237 142.638 395.637 141.591 395.377 140.439C395.118 139.288 395.211 138.085 395.644 136.987C396.077 135.888 396.831 134.946 397.807 134.282C398.783 133.618 399.936 133.263 401.117 133.263C402.622 133.214 404.085 133.765 405.186 134.793C406.286 135.822 406.934 137.245 406.987 138.75ZM140.819 383.466C140.898 384.644 140.622 385.819 140.025 386.837C139.428 387.856 138.539 388.671 137.472 389.177C136.406 389.684 135.212 389.857 134.045 389.676C132.879 389.495 131.794 388.967 130.931 388.16C130.069 387.354 129.469 386.307 129.21 385.156C128.95 384.004 129.043 382.801 129.476 381.703C129.91 380.605 130.663 379.662 131.639 378.998C132.615 378.334 133.768 377.979 134.949 377.979C136.454 377.931 137.918 378.481 139.018 379.51C140.118 380.538 140.766 381.961 140.819 383.466ZM204.127 133.434C209.075 133.434 209.083 125.744 204.127 125.744C199.179 125.744 199.171 133.434 204.127 133.434ZM65.6447 265.59C70.5928 265.59 70.6009 257.901 65.6447 257.901C60.6966 257.901 60.6884 265.59 65.6447 265.59ZM364.268 363.911C369.216 363.911 369.224 356.221 364.268 356.221C359.32 356.221 359.312 363.911 364.268 363.911ZM303.614 238.845C308.562 238.845 308.57 231.155 303.614 231.155C298.666 231.155 298.658 238.845 303.614 238.845Z" fill="black"/>
<path fill-rule="evenodd" clip-rule="evenodd" d="M160.317 195.445C160.996 197.483 160.996 198.162 160.317 198.162C160.217 197.56 159.931 196.939 159.457 196.544C159.238 196.36 158.981 196.248 158.66 196.243C158.329 196.237 157.874 196.344 157.27 196.707C156.009 197.463 155.525 198.194 155.362 198.72C155.197 199.251 155.247 199.942 155.362 200.115C155.474 201.012 155.871 202.464 156.113 203.891C156.357 205.333 156.633 206.699 156.886 207.458C157.416 209.05 158.889 212.579 159.575 214.18L160.291 215.612L165.741 248.31L165.741 248.314C166.195 250.808 166.874 254.647 167.441 258.068C167.724 259.78 167.98 261.39 168.165 262.676C168.346 263.938 168.469 264.947 168.469 265.414C168.469 265.865 168.587 266.828 168.77 268.143C168.83 268.571 168.895 269.031 168.964 269.514C169.103 270.485 169.255 271.549 169.397 272.628C169.61 274.246 169.803 275.919 169.9 277.406C169.996 278.875 170.003 280.227 169.814 281.171C169.554 282.472 169.273 286.206 169.028 290.418C168.785 294.595 168.582 299.169 168.469 302.11V317.041C168.469 320.418 168.638 322.933 168.887 324.762C169.138 326.604 169.466 327.706 169.756 328.286C170.316 329.408 171.446 329.998 172.848 330.699C173.063 330.807 173.489 330.96 174.083 331.141C174.662 331.319 175.361 331.511 176.095 331.703C177.557 332.083 179.138 332.453 180.151 332.679L195.641 335.58L179.883 334.011L179.87 334.008C178.845 333.78 177.24 333.405 175.753 333.017C175.01 332.824 174.29 332.626 173.685 332.441C173.095 332.26 172.569 332.079 172.241 331.915L172.159 331.874C170.861 331.225 169.322 330.456 168.54 328.894C168.151 328.115 167.799 326.839 167.541 324.945C167.281 323.038 167.11 320.458 167.11 317.041V302.084L167.111 302.071C167.224 299.124 167.428 294.534 167.672 290.339C167.914 286.173 168.199 282.322 168.482 280.905C168.633 280.151 168.64 278.955 168.545 277.495C168.45 276.052 168.262 274.414 168.05 272.805C167.909 271.733 167.759 270.684 167.621 269.717C167.552 269.232 167.485 268.767 167.424 268.331C167.247 267.056 167.11 265.982 167.11 265.414C167.11 265.066 167.006 264.166 166.82 262.87C166.637 261.597 166.383 259.998 166.1 258.29C165.535 254.876 164.856 251.041 164.404 248.553L164.402 248.543L158.984 216.037L158.342 214.751L158.334 214.733C157.658 213.154 156.151 209.55 155.597 207.887C155.306 207.016 155.016 205.551 154.773 204.117C154.54 202.741 154.32 201.799 154.203 200.879C154.203 200.2 153.781 199.231 154.064 198.317C154.354 197.383 155.115 196.415 156.571 195.542C157.326 195.089 158.031 194.873 158.684 194.884C159.347 194.896 159.886 195.085 160.317 195.445Z" fill="black"/>
</svg>
