<svg width="55" height="65" viewBox="0 0 55 65" fill="none" xmlns="http://www.w3.org/2000/svg">
<path fill-rule="evenodd" clip-rule="evenodd" d="M0 43.509H42.8243C42.8243 50.3399 34.0755 55.4893 28.4532 56.514H30.8703L33.7865 65H31.5534L30.5287 62.0049H12.6634L11.8227 65H9.58949L11.954 56.514H14.7126C9.22167 55.4893 0 50.3399 0 43.509ZM29.8194 59.9557L29.1626 58.064H13.7406L13.2151 59.9557H29.8194Z" fill="#D24848"/>
<path d="M42.8086 20.1311L42.8086 19.0211C42.8086 18.8117 41.8519 18.642 40.6717 18.642L2.20692 18.642C1.02673 18.642 0.0699959 18.8117 0.0699959 19.0211L0.0699959 20.1311C0.0699959 20.3404 1.02673 20.5101 2.20692 20.5101L40.6717 20.5101C41.8519 20.5101 42.8086 20.3404 42.8086 20.1311Z" fill="#D24848"/>
<path d="M12.0161 19.6417C12.0161 17.1507 9.99674 15.1313 7.50573 15.1313C5.01472 15.1313 2.99536 17.1507 2.99536 19.6417C2.99536 22.1327 5.01472 24.1521 7.50573 24.1521C9.99674 24.1521 12.0161 22.1327 12.0161 19.6417Z" fill="#D24848"/>
<path d="M30.032 19.6417C30.032 17.1507 28.0126 15.1313 25.5216 15.1313C23.0306 15.1313 21.0112 17.1507 21.0112 19.6417C21.0112 22.1327 23.0306 24.1521 25.5216 24.1521C28.0126 24.1521 30.032 22.1327 30.032 19.6417Z" fill="#D24848"/>
<path d="M14.542 17.7123L14.542 21.3673C14.542 22.9074 15.3281 24.1559 16.2979 24.1559C17.2676 24.1559 18.0537 22.9074 18.0537 21.3673L18.0537 17.7123C18.0537 16.1721 17.2676 14.9236 16.2979 14.9236C15.3281 14.9236 14.542 16.1721 14.542 17.7123Z" fill="#D24848"/>
<path d="M32.7358 17.7123L32.7358 21.3673C32.7358 22.9074 33.6409 24.1559 34.7573 24.1559C35.8737 24.1559 36.7787 22.9074 36.7787 21.3673L36.7787 17.7123C36.7787 16.1721 35.8737 14.9236 34.7573 14.9236C33.6409 14.9236 32.7358 16.1721 32.7358 17.7123Z" fill="#D24848"/>
<path d="M18.5483 1.63054C16.4465 2.73399 15.9473 4.33661 16.9982 6.49096C18.2331 8.77668 17.6813 10.3793 15.2905 11.2988" stroke="#D24848" stroke-width="2"/>
<path d="M27.7178 1.63054C25.616 2.73399 25.1168 4.33661 26.1677 6.49096C27.4025 8.77668 26.8508 10.3793 24.46 11.2988" stroke="#D24848" stroke-width="2"/>
<path d="M36.6504 1.63054C34.5486 2.73399 34.0494 4.33661 35.1003 6.49096C36.3351 8.77668 35.7834 10.3793 33.3926 11.2988" stroke="#D24848" stroke-width="2"/>
<path d="M9.8784 1.63054C7.7766 2.73399 7.27742 4.33661 8.32832 6.49096C9.56313 8.77668 9.01141 10.3793 6.62061 11.2988" stroke="#D24848" stroke-width="2"/>
<path d="M11.2446 33.3678V40.7504H9.35296V26.1692H11.2446V31.7652H13.5303V33.3678H11.2446ZM0.183838 36.6782V27.2463H2.04919V30.6355H5.38581V27.2463H7.25116V36.6782H0.183838ZM5.38581 32.2118H2.04919V35.1018H5.38581V32.2118Z" fill="#D24848"/>
<path d="M25.8252 40.7504V26.1692H27.7168V40.7504H25.8252ZM15.5264 36.8095V27.2201H17.3654V30.7669H19.4673V27.2201H21.3326V31.3711H22.8564V26.4844H24.7218V40.3301H22.8564V32.9738H21.3326V36.8095H15.5264ZM19.4673 32.3432H17.3654V35.2069H19.4673V32.3432Z" fill="#D24848"/>
<path d="M33.7866 40.7504V34.8917H30.45V33.289H39.9606C39.9869 33.0263 40.0132 32.3432 40.0657 31.2398L32.1839 31.5813L31.7373 29.9787L40.1183 29.716C40.1445 29.1642 40.1445 28.7176 40.1445 28.3761H32.4467V26.7734H42.0362C42.0362 28.5862 41.9311 30.7669 41.7472 33.289H43.9541V34.8917H40.67V40.7504H38.7521V34.8917H35.6519V40.7504H33.7603H33.7866Z" fill="#D24848"/>
<path fill-rule="evenodd" clip-rule="evenodd" d="M49.0244 65H50.3906V1H47.7371L49.0244 65Z" fill="#D24848"/>
<path fill-rule="evenodd" clip-rule="evenodd" d="M52.9123 65H51.5461V1H54.1997L52.9123 65Z" fill="#D24848"/>
</svg>
