<svg width="209" height="65" viewBox="0 0 209 65" fill="none" xmlns="http://www.w3.org/2000/svg">
<path d="M75.125 30L72.9922 24.5508H66.125L64.0156 30H62L68.7734 12.7969H70.4492L77.1875 30H75.125ZM72.3711 22.7578L70.3789 17.4492C70.1211 16.7773 69.8555 15.9531 69.582 14.9766C69.4102 15.7266 69.1641 16.5508 68.8438 17.4492L66.8281 22.7578H72.3711ZM83.3984 28.6289C83.7422 28.6289 84.0742 28.6055 84.3945 28.5586C84.7148 28.5039 84.9688 28.4492 85.1562 28.3945V29.8828C84.9453 29.9844 84.6328 30.0664 84.2188 30.1289C83.8125 30.1992 83.4453 30.2344 83.1172 30.2344C80.6328 30.2344 79.3906 28.9258 79.3906 26.3086V18.668H77.5508V17.7305L79.3906 16.9219L80.2109 14.1797H81.3359V17.1562H85.0625V18.668H81.3359V26.2266C81.3359 27 81.5195 27.5938 81.8867 28.0078C82.2539 28.4219 82.7578 28.6289 83.3984 28.6289ZM104.105 30V21.6445C104.105 20.6211 103.887 19.8555 103.449 19.3477C103.012 18.832 102.332 18.5742 101.41 18.5742C100.199 18.5742 99.3047 18.9219 98.7266 19.6172C98.1484 20.3125 97.8594 21.3828 97.8594 22.8281V30H95.9141V21.6445C95.9141 20.6211 95.6953 19.8555 95.2578 19.3477C94.8203 18.832 94.1367 18.5742 93.207 18.5742C91.9883 18.5742 91.0938 18.9414 90.5234 19.6758C89.9609 20.4023 89.6797 21.5977 89.6797 23.2617V30H87.7344V17.1562H89.3164L89.6328 18.9141H89.7266C90.0938 18.2891 90.6094 17.8008 91.2734 17.4492C91.9453 17.0977 92.6953 16.9219 93.5234 16.9219C95.5312 16.9219 96.8438 17.6484 97.4609 19.1016H97.5547C97.9375 18.4297 98.4922 17.8984 99.2188 17.5078C99.9453 17.1172 100.773 16.9219 101.703 16.9219C103.156 16.9219 104.242 17.2969 104.961 18.0469C105.688 18.7891 106.051 19.9805 106.051 21.6211V30H104.105ZM117.969 30L117.582 28.1719H117.488C116.848 28.9766 116.207 29.5234 115.566 29.8125C114.934 30.0938 114.141 30.2344 113.188 30.2344C111.914 30.2344 110.914 29.9062 110.188 29.25C109.469 28.5938 109.109 27.6602 109.109 26.4492C109.109 23.8555 111.184 22.4961 115.332 22.3711L117.512 22.3008V21.5039C117.512 20.4961 117.293 19.7539 116.855 19.2773C116.426 18.793 115.734 18.5508 114.781 18.5508C113.711 18.5508 112.5 18.8789 111.148 19.5352L110.551 18.0469C111.184 17.7031 111.875 17.4336 112.625 17.2383C113.383 17.043 114.141 16.9453 114.898 16.9453C116.43 16.9453 117.562 17.2852 118.297 17.9648C119.039 18.6445 119.41 19.7344 119.41 21.2344V30H117.969ZM113.574 28.6289C114.785 28.6289 115.734 28.2969 116.422 27.6328C117.117 26.9688 117.465 26.0391 117.465 24.8438V23.6836L115.52 23.7656C113.973 23.8203 112.855 24.0625 112.168 24.4922C111.488 24.9141 111.148 25.5742 111.148 26.4727C111.148 27.1758 111.359 27.7109 111.781 28.0781C112.211 28.4453 112.809 28.6289 113.574 28.6289ZM142.332 30H139.988L133.742 21.6914L131.949 23.2852V30H129.957V12.8672H131.949V21.3633L139.719 12.8672H142.074L135.184 20.3086L142.332 30ZM155.492 23.5664C155.492 25.6602 154.965 27.2969 153.91 28.4766C152.855 29.6484 151.398 30.2344 149.539 30.2344C148.391 30.2344 147.371 29.9648 146.48 29.4258C145.59 28.8867 144.902 28.1133 144.418 27.1055C143.934 26.0977 143.691 24.918 143.691 23.5664C143.691 21.4727 144.215 19.8438 145.262 18.6797C146.309 17.5078 147.762 16.9219 149.621 16.9219C151.418 16.9219 152.844 17.5195 153.898 18.7148C154.961 19.9102 155.492 21.5273 155.492 23.5664ZM145.707 23.5664C145.707 25.207 146.035 26.457 146.691 27.3164C147.348 28.1758 148.312 28.6055 149.586 28.6055C150.859 28.6055 151.824 28.1797 152.48 27.3281C153.145 26.4688 153.477 25.2148 153.477 23.5664C153.477 21.9336 153.145 20.6953 152.48 19.8516C151.824 19 150.852 18.5742 149.562 18.5742C148.289 18.5742 147.328 18.9922 146.68 19.8281C146.031 20.6641 145.707 21.9102 145.707 23.5664ZM164.773 16.9219C165.344 16.9219 165.855 16.9688 166.309 17.0625L166.039 18.8672C165.508 18.75 165.039 18.6914 164.633 18.6914C163.594 18.6914 162.703 19.1133 161.961 19.957C161.227 20.8008 160.859 21.8516 160.859 23.1094V30H158.914V17.1562H160.52L160.742 19.5352H160.836C161.312 18.6992 161.887 18.0547 162.559 17.6016C163.23 17.1484 163.969 16.9219 164.773 16.9219ZM174.137 30.2344C172.238 30.2344 170.738 29.6562 169.637 28.5C168.543 27.3438 167.996 25.7383 167.996 23.6836C167.996 21.6133 168.504 19.9688 169.52 18.75C170.543 17.5312 171.914 16.9219 173.633 16.9219C175.242 16.9219 176.516 17.4531 177.453 18.5156C178.391 19.5703 178.859 20.9648 178.859 22.6992V23.9297H170.012C170.051 25.4375 170.43 26.582 171.148 27.3633C171.875 28.1445 172.895 28.5352 174.207 28.5352C175.59 28.5352 176.957 28.2461 178.309 27.668V29.4023C177.621 29.6992 176.969 29.9102 176.352 30.0352C175.742 30.168 175.004 30.2344 174.137 30.2344ZM173.609 18.5508C172.578 18.5508 171.754 18.8867 171.137 19.5586C170.527 20.2305 170.168 21.1602 170.059 22.3477H176.773C176.773 21.1211 176.5 20.1836 175.953 19.5352C175.406 18.8789 174.625 18.5508 173.609 18.5508ZM190.086 30L189.699 28.1719H189.605C188.965 28.9766 188.324 29.5234 187.684 29.8125C187.051 30.0938 186.258 30.2344 185.305 30.2344C184.031 30.2344 183.031 29.9062 182.305 29.25C181.586 28.5938 181.227 27.6602 181.227 26.4492C181.227 23.8555 183.301 22.4961 187.449 22.3711L189.629 22.3008V21.5039C189.629 20.4961 189.41 19.7539 188.973 19.2773C188.543 18.793 187.852 18.5508 186.898 18.5508C185.828 18.5508 184.617 18.8789 183.266 19.5352L182.668 18.0469C183.301 17.7031 183.992 17.4336 184.742 17.2383C185.5 17.043 186.258 16.9453 187.016 16.9453C188.547 16.9453 189.68 17.2852 190.414 17.9648C191.156 18.6445 191.527 19.7344 191.527 21.2344V30H190.086ZM185.691 28.6289C186.902 28.6289 187.852 28.2969 188.539 27.6328C189.234 26.9688 189.582 26.0391 189.582 24.8438V23.6836L187.637 23.7656C186.09 23.8203 184.973 24.0625 184.285 24.4922C183.605 24.9141 183.266 25.5742 183.266 26.4727C183.266 27.1758 183.477 27.7109 183.898 28.0781C184.328 28.4453 184.926 28.6289 185.691 28.6289ZM204.336 30V21.6914C204.336 20.6445 204.098 19.8633 203.621 19.3477C203.145 18.832 202.398 18.5742 201.383 18.5742C200.039 18.5742 199.055 18.9375 198.43 19.6641C197.805 20.3906 197.492 21.5898 197.492 23.2617V30H195.547V17.1562H197.129L197.445 18.9141H197.539C197.938 18.2812 198.496 17.793 199.215 17.4492C199.934 17.0977 200.734 16.9219 201.617 16.9219C203.164 16.9219 204.328 17.2969 205.109 18.0469C205.891 18.7891 206.281 19.9805 206.281 21.6211V30H204.336ZM64.1562 37.8672H69.4883C71.918 37.8672 73.6797 38.2148 74.7734 38.9102C75.875 39.5977 76.4258 40.6953 76.4258 42.2031C76.4258 43.2266 76.1836 44.0664 75.6992 44.7227C75.2227 45.3789 74.5859 45.7734 73.7891 45.9062V46.0234C74.875 46.2656 75.6562 46.7188 76.1328 47.3828C76.6172 48.0469 76.8594 48.9297 76.8594 50.0312C76.8594 51.5938 76.293 52.8125 75.1602 53.6875C74.0352 54.5625 72.5039 55 70.5664 55H64.1562V37.8672ZM67.7891 44.6523H69.8984C70.8828 44.6523 71.5938 44.5 72.0312 44.1953C72.4766 43.8906 72.6992 43.3867 72.6992 42.6836C72.6992 42.0273 72.457 41.5586 71.9727 41.2773C71.4961 40.9883 70.7383 40.8438 69.6992 40.8438H67.7891V44.6523ZM67.7891 47.5352V52H70.1562C71.1562 52 71.8945 51.8086 72.3711 51.4258C72.8477 51.043 73.0859 50.457 73.0859 49.668C73.0859 48.2461 72.0703 47.5352 70.0391 47.5352H67.7891ZM88.3203 55L87.6289 53.2188H87.5352C86.9336 53.9766 86.3125 54.5039 85.6719 54.8008C85.0391 55.0898 84.2109 55.2344 83.1875 55.2344C81.9297 55.2344 80.9375 54.875 80.2109 54.1562C79.4922 53.4375 79.1328 52.4141 79.1328 51.0859C79.1328 49.6953 79.6172 48.6719 80.5859 48.0156C81.5625 47.3516 83.0312 46.9844 84.9922 46.9141L87.2656 46.8438V46.2695C87.2656 44.9414 86.5859 44.2773 85.2266 44.2773C84.1797 44.2773 82.9492 44.5938 81.5352 45.2266L80.3516 42.8125C81.8594 42.0234 83.5312 41.6289 85.3672 41.6289C87.125 41.6289 88.4727 42.0117 89.4102 42.7773C90.3477 43.543 90.8164 44.707 90.8164 46.2695V55H88.3203ZM87.2656 48.9297L85.8828 48.9766C84.8438 49.0078 84.0703 49.1953 83.5625 49.5391C83.0547 49.8828 82.8008 50.4062 82.8008 51.1094C82.8008 52.1172 83.3789 52.6211 84.5352 52.6211C85.3633 52.6211 86.0234 52.3828 86.5156 51.9062C87.0156 51.4297 87.2656 50.7969 87.2656 50.0078V48.9297ZM101.82 41.6523C102.305 41.6523 102.707 41.6875 103.027 41.7578L102.758 45.1094C102.469 45.0312 102.117 44.9922 101.703 44.9922C100.562 44.9922 99.6719 45.2852 99.0312 45.8711C98.3984 46.457 98.082 47.2773 98.082 48.332V55H94.5078V41.8984H97.2148L97.7422 44.1016H97.918C98.3242 43.3672 98.8711 42.7773 99.5586 42.332C100.254 41.8789 101.008 41.6523 101.82 41.6523ZM112.695 41.6523C114.242 41.6523 115.453 42.2578 116.328 43.4688C117.203 44.6719 117.641 46.3242 117.641 48.4258C117.641 50.5898 117.188 52.2656 116.281 53.4531C115.383 54.6406 114.156 55.2344 112.602 55.2344C111.062 55.2344 109.855 54.6758 108.98 53.5586H108.734L108.137 55H105.406V36.7656H108.98V41.0078C108.98 41.5469 108.934 42.4102 108.84 43.5977H108.98C109.816 42.3008 111.055 41.6523 112.695 41.6523ZM111.547 44.5117C110.664 44.5117 110.02 44.7852 109.613 45.332C109.207 45.8711 108.996 46.7656 108.98 48.0156V48.4023C108.98 49.8086 109.188 50.8164 109.602 51.4258C110.023 52.0352 110.688 52.3398 111.594 52.3398C112.328 52.3398 112.91 52.0039 113.34 51.332C113.777 50.6523 113.996 49.668 113.996 48.3789C113.996 47.0898 113.777 46.125 113.34 45.4844C112.902 44.8359 112.305 44.5117 111.547 44.5117ZM126.02 44.1953C125.262 44.1953 124.668 44.4375 124.238 44.9219C123.809 45.3984 123.562 46.0781 123.5 46.9609H128.516C128.5 46.0781 128.27 45.3984 127.824 44.9219C127.379 44.4375 126.777 44.1953 126.02 44.1953ZM126.523 55.2344C124.414 55.2344 122.766 54.6523 121.578 53.4883C120.391 52.3242 119.797 50.6758 119.797 48.543C119.797 46.3477 120.344 44.6523 121.438 43.457C122.539 42.2539 124.059 41.6523 125.996 41.6523C127.848 41.6523 129.289 42.1797 130.32 43.2344C131.352 44.2891 131.867 45.7461 131.867 47.6055V49.3398H123.418C123.457 50.3555 123.758 51.1484 124.32 51.7188C124.883 52.2891 125.672 52.5742 126.688 52.5742C127.477 52.5742 128.223 52.4922 128.926 52.3281C129.629 52.1641 130.363 51.9023 131.129 51.543V54.3086C130.504 54.6211 129.836 54.8516 129.125 55C128.414 55.1562 127.547 55.2344 126.523 55.2344ZM140.199 52.4336C141.105 52.4336 141.77 52.1758 142.191 51.6602C142.613 51.1367 142.844 50.2266 142.883 48.9297V48.4961C142.883 47.0898 142.664 46.082 142.227 45.4727C141.797 44.8633 141.102 44.5586 140.141 44.5586C138.461 44.5586 137.621 45.8789 137.621 48.5195C137.621 49.832 137.828 50.8125 138.242 51.4609C138.664 52.1094 139.316 52.4336 140.199 52.4336ZM138.922 55.2344C137.375 55.2344 136.164 54.6406 135.289 53.4531C134.414 52.2578 133.977 50.5977 133.977 48.4727C133.977 46.332 134.422 44.6602 135.312 43.457C136.211 42.2539 137.438 41.6523 138.992 41.6523C139.82 41.6523 140.543 41.8086 141.16 42.1211C141.777 42.4336 142.32 42.918 142.789 43.5742H142.883L143.199 41.8984H146.223V60.7656H142.637V55.2695C142.637 54.793 142.688 54.1367 142.789 53.3008H142.637C142.254 53.9336 141.746 54.4141 141.113 54.7422C140.48 55.0703 139.75 55.2344 138.922 55.2344ZM159.242 55L158.762 53.3242H158.574C158.191 53.9336 157.648 54.4062 156.945 54.7422C156.242 55.0703 155.441 55.2344 154.543 55.2344C153.004 55.2344 151.844 54.8242 151.062 54.0039C150.281 53.1758 149.891 51.9883 149.891 50.4414V41.8984H153.465V49.5508C153.465 50.4961 153.633 51.207 153.969 51.6836C154.305 52.1523 154.84 52.3867 155.574 52.3867C156.574 52.3867 157.297 52.0547 157.742 51.3906C158.188 50.7188 158.41 49.6094 158.41 48.0625V41.8984H161.984V55H159.242ZM171.16 44.1953C170.402 44.1953 169.809 44.4375 169.379 44.9219C168.949 45.3984 168.703 46.0781 168.641 46.9609H173.656C173.641 46.0781 173.41 45.3984 172.965 44.9219C172.52 44.4375 171.918 44.1953 171.16 44.1953ZM171.664 55.2344C169.555 55.2344 167.906 54.6523 166.719 53.4883C165.531 52.3242 164.938 50.6758 164.938 48.543C164.938 46.3477 165.484 44.6523 166.578 43.457C167.68 42.2539 169.199 41.6523 171.137 41.6523C172.988 41.6523 174.43 42.1797 175.461 43.2344C176.492 44.2891 177.008 45.7461 177.008 47.6055V49.3398H168.559C168.598 50.3555 168.898 51.1484 169.461 51.7188C170.023 52.2891 170.812 52.5742 171.828 52.5742C172.617 52.5742 173.363 52.4922 174.066 52.3281C174.77 52.1641 175.504 51.9023 176.27 51.543V54.3086C175.645 54.6211 174.977 54.8516 174.266 55C173.555 55.1562 172.688 55.2344 171.664 55.2344Z" fill="black"/>
<path fill-rule="evenodd" clip-rule="evenodd" d="M0 43.509H42.8243C42.8243 50.3399 34.0755 55.4893 28.4532 56.514H30.8703L33.7865 65H31.5534L30.5287 62.0049H12.6634L11.8227 65H9.58949L11.954 56.514H14.7126C9.22167 55.4893 0 50.3399 0 43.509ZM29.8194 59.9557L29.1626 58.064H13.7406L13.2151 59.9557H29.8194Z" fill="#D24848"/>
<path d="M42.8086 20.1311L42.8086 19.0211C42.8086 18.8117 41.8519 18.642 40.6717 18.642L2.20692 18.642C1.02673 18.642 0.0699959 18.8117 0.0699959 19.0211L0.0699959 20.1311C0.0699959 20.3404 1.02673 20.5101 2.20692 20.5101L40.6717 20.5101C41.8519 20.5101 42.8086 20.3404 42.8086 20.1311Z" fill="#D24848"/>
<path d="M12.0161 19.6417C12.0161 17.1507 9.99674 15.1313 7.50573 15.1313C5.01472 15.1313 2.99536 17.1507 2.99536 19.6417C2.99536 22.1327 5.01472 24.1521 7.50573 24.1521C9.99674 24.1521 12.0161 22.1327 12.0161 19.6417Z" fill="#D24848"/>
<path d="M30.032 19.6417C30.032 17.1507 28.0126 15.1313 25.5216 15.1313C23.0306 15.1313 21.0112 17.1507 21.0112 19.6417C21.0112 22.1327 23.0306 24.1521 25.5216 24.1521C28.0126 24.1521 30.032 22.1327 30.032 19.6417Z" fill="#D24848"/>
<path d="M14.542 17.7123L14.542 21.3673C14.542 22.9074 15.3281 24.1559 16.2979 24.1559C17.2676 24.1559 18.0537 22.9074 18.0537 21.3673L18.0537 17.7123C18.0537 16.1721 17.2676 14.9236 16.2979 14.9236C15.3281 14.9236 14.542 16.1721 14.542 17.7123Z" fill="#D24848"/>
<path d="M32.7358 17.7123L32.7358 21.3673C32.7358 22.9074 33.6409 24.1559 34.7573 24.1559C35.8737 24.1559 36.7787 22.9074 36.7787 21.3673L36.7787 17.7123C36.7787 16.1721 35.8737 14.9236 34.7573 14.9236C33.6409 14.9236 32.7358 16.1721 32.7358 17.7123Z" fill="#D24848"/>
<path d="M18.5483 1.63052C16.4465 2.73397 15.9473 4.3366 16.9982 6.49095C18.2331 8.77666 17.6813 10.3793 15.2905 11.2988" stroke="#D24848" stroke-width="2"/>
<path d="M27.7178 1.63052C25.616 2.73397 25.1168 4.3366 26.1677 6.49095C27.4025 8.77666 26.8508 10.3793 24.46 11.2988" stroke="#D24848" stroke-width="2"/>
<path d="M36.6504 1.63052C34.5486 2.73397 34.0494 4.3366 35.1003 6.49095C36.3351 8.77666 35.7834 10.3793 33.3926 11.2988" stroke="#D24848" stroke-width="2"/>
<path d="M9.8784 1.63052C7.7766 2.73397 7.27742 4.3366 8.32832 6.49095C9.56313 8.77666 9.01141 10.3793 6.62061 11.2988" stroke="#D24848" stroke-width="2"/>
<path d="M11.2446 33.3678V40.7504H9.35296V26.1692H11.2446V31.7652H13.5303V33.3678H11.2446ZM0.183838 36.6782V27.2463H2.04919V30.6355H5.38581V27.2463H7.25116V36.6782H0.183838ZM5.38581 32.2118H2.04919V35.1018H5.38581V32.2118Z" fill="#D24848"/>
<path d="M25.8252 40.7504V26.1692H27.7168V40.7504H25.8252ZM15.5264 36.8095V27.2201H17.3654V30.7669H19.4673V27.2201H21.3326V31.3711H22.8564V26.4844H24.7218V40.3301H22.8564V32.9738H21.3326V36.8095H15.5264ZM19.4673 32.3432H17.3654V35.2069H19.4673V32.3432Z" fill="#D24848"/>
<path d="M33.7866 40.7504V34.8917H30.45V33.289H39.9606C39.9869 33.0263 40.0132 32.3432 40.0657 31.2398L32.1839 31.5813L31.7373 29.9787L40.1183 29.716C40.1445 29.1642 40.1445 28.7176 40.1445 28.3761H32.4467V26.7734H42.0362C42.0362 28.5862 41.9311 30.7669 41.7472 33.289H43.9541V34.8917H40.67V40.7504H38.7521V34.8917H35.6519V40.7504H33.7603H33.7866Z" fill="#D24848"/>
<path fill-rule="evenodd" clip-rule="evenodd" d="M49.0244 65H50.3906V1H47.7371L49.0244 65Z" fill="#D24848"/>
<path fill-rule="evenodd" clip-rule="evenodd" d="M52.9123 65H51.5461V1H54.1997L52.9123 65Z" fill="#D24848"/>
</svg>
